<?xml version="1.0" encoding="UTF-8" standalone="no"?>
<!DOCTYPE svg PUBLIC "-//W3C//DTD SVG 1.1//EN"
 "http://www.w3.org/Graphics/SVG/1.1/DTD/svg11.dtd">
<!-- Generated by graphviz version 2.47.0 (20210316.0004)
 -->
<!-- Title: dependencies Pages: 1 -->
<svg width="1364pt" height="211pt"
 viewBox="0.00 0.00 1364.00 211.00" xmlns="http://www.w3.org/2000/svg" xmlns:xlink="http://www.w3.org/1999/xlink">
<g id="graph0" class="graph" transform="scale(1 1) rotate(0) translate(4 207)">
<title>dependencies</title>
<polygon fill="white" stroke="transparent" points="-4,4 -4,-207 1360,-207 1360,4 -4,4"/>
<text text-anchor="start" x="657.01" y="-42.4" font-family="Times-12" font-weight="bold" font-size="14.00">Legend</text>
<polygon fill="#ffffb3" stroke="transparent" points="444,-10 444,-30 464,-30 464,-10 444,-10"/>
<text text-anchor="start" x="467.63" y="-15.4" font-family="Times-12" font-size="14.00"> &#160;Declarations</text>
<polygon fill="#8dd3c7" stroke="transparent" points="557,-10 557,-30 577,-30 577,-10 557,-10"/>
<text text-anchor="start" x="580.73" y="-15.4" font-family="Times-12" font-size="14.00"> &#160;Module</text>
<polygon fill="#80b1d3" stroke="transparent" points="643,-10 643,-30 663,-30 663,-10 643,-10"/>
<text text-anchor="start" x="666.78" y="-15.4" font-family="Times-12" font-size="14.00"> &#160;Bootstrap</text>
<polygon fill="#fdb462" stroke="transparent" points="740,-10 740,-30 760,-30 760,-10 740,-10"/>
<text text-anchor="start" x="763.67" y="-15.4" font-family="Times-12" font-size="14.00"> &#160;Providers</text>
<polygon fill="#fb8072" stroke="transparent" points="836,-10 836,-30 856,-30 856,-10 836,-10"/>
<text text-anchor="start" x="859.73" y="-15.4" font-family="Times-12" font-size="14.00"> &#160;Exports</text>
<g id="clust1" class="cluster">
<title>cluster_CategoryModule</title>
<polygon fill="none" stroke="black" stroke-dasharray="1,5" points="8,-70 8,-195 1348,-195 1348,-70 8,-70"/>
</g>
<g id="clust7" class="cluster">
<title>cluster_CategoryModule_imports</title>
<polygon fill="none" stroke="black" points="728,-78 728,-130 1340,-130 1340,-78 728,-78"/>
</g>
<g id="clust2" class="cluster">
<title>cluster_CategoryModule_declarations</title>
<polygon fill="none" stroke="black" points="16,-78 16,-130 720,-130 720,-78 16,-78"/>
</g>
<!-- AddCategoryComponent -->
<g id="node1" class="node">
<title>AddCategoryComponent</title>
<polygon fill="#ffffb3" stroke="black" points="712.26,-122 555.74,-122 555.74,-86 712.26,-86 712.26,-122"/>
<text text-anchor="middle" x="634" y="-99.8" font-family="Times,serif" font-size="14.00">AddCategoryComponent</text>
</g>
<!-- CategoryModule -->
<g id="node5" class="node">
<title>CategoryModule</title>
<polygon fill="#8dd3c7" stroke="black" points="766.37,-187 763.37,-191 742.37,-191 739.37,-187 655.63,-187 655.63,-151 766.37,-151 766.37,-187"/>
<text text-anchor="middle" x="711" y="-164.8" font-family="Times,serif" font-size="14.00">CategoryModule</text>
</g>
<!-- AddCategoryComponent&#45;&gt;CategoryModule -->
<g id="edge1" class="edge">
<title>AddCategoryComponent&#45;&gt;CategoryModule</title>
<path fill="none" stroke="black" d="M683.97,-122.11C683.97,-122.11 683.97,-140.99 683.97,-140.99"/>
<polygon fill="black" stroke="black" points="680.47,-140.99 683.97,-150.99 687.47,-140.99 680.47,-140.99"/>
</g>
<!-- CategoryFieldsComponent -->
<g id="node2" class="node">
<title>CategoryFieldsComponent</title>
<polygon fill="#ffffb3" stroke="black" points="537.37,-122 370.63,-122 370.63,-86 537.37,-86 537.37,-122"/>
<text text-anchor="middle" x="454" y="-99.8" font-family="Times,serif" font-size="14.00">CategoryFieldsComponent</text>
</g>
<!-- CategoryFieldsComponent&#45;&gt;CategoryModule -->
<g id="edge2" class="edge">
<title>CategoryFieldsComponent&#45;&gt;CategoryModule</title>
<path fill="none" stroke="black" d="M454,-122.03C454,-138.4 454,-160 454,-160 454,-160 645.55,-160 645.55,-160"/>
<polygon fill="black" stroke="black" points="645.55,-163.5 655.55,-160 645.55,-156.5 645.55,-163.5"/>
</g>
<!-- CategoryListComponent -->
<g id="node3" class="node">
<title>CategoryListComponent</title>
<polygon fill="#ffffb3" stroke="black" points="352.43,-122 197.57,-122 197.57,-86 352.43,-86 352.43,-122"/>
<text text-anchor="middle" x="275" y="-99.8" font-family="Times,serif" font-size="14.00">CategoryListComponent</text>
</g>
<!-- CategoryListComponent&#45;&gt;CategoryModule -->
<g id="edge3" class="edge">
<title>CategoryListComponent&#45;&gt;CategoryModule</title>
<path fill="none" stroke="black" d="M275,-122.11C275,-141.34 275,-169 275,-169 275,-169 645.34,-169 645.34,-169"/>
<polygon fill="black" stroke="black" points="645.34,-172.5 655.34,-169 645.34,-165.5 645.34,-172.5"/>
</g>
<!-- EditCategoryComponent -->
<g id="node4" class="node">
<title>EditCategoryComponent</title>
<polygon fill="#ffffb3" stroke="black" points="179.98,-122 24.02,-122 24.02,-86 179.98,-86 179.98,-122"/>
<text text-anchor="middle" x="102" y="-99.8" font-family="Times,serif" font-size="14.00">EditCategoryComponent</text>
</g>
<!-- EditCategoryComponent&#45;&gt;CategoryModule -->
<g id="edge4" class="edge">
<title>EditCategoryComponent&#45;&gt;CategoryModule</title>
<path fill="none" stroke="black" d="M102,-122.29C102,-144.21 102,-178 102,-178 102,-178 645.61,-178 645.61,-178"/>
<polygon fill="black" stroke="black" points="645.61,-181.5 655.61,-178 645.61,-174.5 645.61,-181.5"/>
</g>
<!-- CategoryRoutingModule -->
<g id="node6" class="node">
<title>CategoryRoutingModule</title>
<polygon fill="#8dd3c7" stroke="black" points="1331.98,-122 1328.98,-126 1307.98,-126 1304.98,-122 1176.02,-122 1176.02,-86 1331.98,-86 1331.98,-122"/>
<text text-anchor="middle" x="1254" y="-99.8" font-family="Times,serif" font-size="14.00">CategoryRoutingModule</text>
</g>
<!-- CategoryRoutingModule&#45;&gt;CategoryModule -->
<g id="edge5" class="edge">
<title>CategoryRoutingModule&#45;&gt;CategoryModule</title>
<path fill="none" stroke="black" d="M1254,-122.29C1254,-144.21 1254,-178 1254,-178 1254,-178 776.56,-178 776.56,-178"/>
<polygon fill="black" stroke="black" points="776.56,-174.5 766.56,-178 776.56,-181.5 776.56,-174.5"/>
</g>
<!-- EditionLayoutModule -->
<g id="node7" class="node">
<title>EditionLayoutModule</title>
<polygon fill="#8dd3c7" stroke="black" points="1158.43,-122 1155.43,-126 1134.43,-126 1131.43,-122 1017.57,-122 1017.57,-86 1158.43,-86 1158.43,-122"/>
<text text-anchor="middle" x="1088" y="-99.8" font-family="Times,serif" font-size="14.00">EditionLayoutModule</text>
</g>
<!-- EditionLayoutModule&#45;&gt;CategoryModule -->
<g id="edge6" class="edge">
<title>EditionLayoutModule&#45;&gt;CategoryModule</title>
<path fill="none" stroke="black" d="M1088,-122.11C1088,-141.34 1088,-169 1088,-169 1088,-169 776.63,-169 776.63,-169"/>
<polygon fill="black" stroke="black" points="776.63,-165.5 766.63,-169 776.63,-172.5 776.63,-165.5"/>
</g>
<!-- ListingLayoutModule -->
<g id="node8" class="node">
<title>ListingLayoutModule</title>
<polygon fill="#8dd3c7" stroke="black" points="999.38,-122 996.38,-126 975.38,-126 972.38,-122 860.62,-122 860.62,-86 999.38,-86 999.38,-122"/>
<text text-anchor="middle" x="930" y="-99.8" font-family="Times,serif" font-size="14.00">ListingLayoutModule</text>
</g>
<!-- ListingLayoutModule&#45;&gt;CategoryModule -->
<g id="edge7" class="edge">
<title>ListingLayoutModule&#45;&gt;CategoryModule</title>
<path fill="none" stroke="black" d="M930,-122.03C930,-138.4 930,-160 930,-160 930,-160 776.55,-160 776.55,-160"/>
<polygon fill="black" stroke="black" points="776.55,-156.5 766.55,-160 776.55,-163.5 776.55,-156.5"/>
</g>
<!-- MaterialModule -->
<g id="node9" class="node">
<title>MaterialModule</title>
<polygon fill="#8dd3c7" stroke="black" points="842.47,-122 839.47,-126 818.47,-126 815.47,-122 735.53,-122 735.53,-86 842.47,-86 842.47,-122"/>
<text text-anchor="middle" x="789" y="-99.8" font-family="Times,serif" font-size="14.00">MaterialModule</text>
</g>
<!-- MaterialModule&#45;&gt;CategoryModule -->
<g id="edge8" class="edge">
<title>MaterialModule&#45;&gt;CategoryModule</title>
<path fill="none" stroke="black" d="M750.97,-122.11C750.97,-122.11 750.97,-140.99 750.97,-140.99"/>
<polygon fill="black" stroke="black" points="747.47,-140.99 750.97,-150.99 754.47,-140.99 747.47,-140.99"/>
</g>
</g>
</svg>
