<?xml version="1.0" encoding="UTF-8" standalone="no"?>
<!DOCTYPE svg PUBLIC "-//W3C//DTD SVG 1.1//EN"
 "http://www.w3.org/Graphics/SVG/1.1/DTD/svg11.dtd">
<!-- Generated by graphviz version 2.47.0 (20210316.0004)
 -->
<!-- Title: dependencies Pages: 1 -->
<svg width="1166pt" height="211pt"
 viewBox="0.00 0.00 1166.00 211.00" xmlns="http://www.w3.org/2000/svg" xmlns:xlink="http://www.w3.org/1999/xlink">
<g id="graph0" class="graph" transform="scale(1 1) rotate(0) translate(4 207)">
<title>dependencies</title>
<polygon fill="white" stroke="transparent" points="-4,4 -4,-207 1162,-207 1162,4 -4,4"/>
<text text-anchor="start" x="558.01" y="-42.4" font-family="Times-12" font-weight="bold" font-size="14.00">Legend</text>
<polygon fill="#ffffb3" stroke="transparent" points="345,-10 345,-30 365,-30 365,-10 345,-10"/>
<text text-anchor="start" x="368.63" y="-15.4" font-family="Times-12" font-size="14.00"> &#160;Declarations</text>
<polygon fill="#8dd3c7" stroke="transparent" points="458,-10 458,-30 478,-30 478,-10 458,-10"/>
<text text-anchor="start" x="481.73" y="-15.4" font-family="Times-12" font-size="14.00"> &#160;Module</text>
<polygon fill="#80b1d3" stroke="transparent" points="544,-10 544,-30 564,-30 564,-10 544,-10"/>
<text text-anchor="start" x="567.78" y="-15.4" font-family="Times-12" font-size="14.00"> &#160;Bootstrap</text>
<polygon fill="#fdb462" stroke="transparent" points="641,-10 641,-30 661,-30 661,-10 641,-10"/>
<text text-anchor="start" x="664.67" y="-15.4" font-family="Times-12" font-size="14.00"> &#160;Providers</text>
<polygon fill="#fb8072" stroke="transparent" points="737,-10 737,-30 757,-30 757,-10 737,-10"/>
<text text-anchor="start" x="760.73" y="-15.4" font-family="Times-12" font-size="14.00"> &#160;Exports</text>
<g id="clust1" class="cluster">
<title>cluster_CategoryModule</title>
<polygon fill="none" stroke="black" stroke-dasharray="1,5" points="8,-70 8,-195 1150,-195 1150,-70 8,-70"/>
</g>
<g id="clust7" class="cluster">
<title>cluster_CategoryModule_imports</title>
<polygon fill="none" stroke="black" points="728,-78 728,-130 1142,-130 1142,-78 728,-78"/>
</g>
<g id="clust2" class="cluster">
<title>cluster_CategoryModule_declarations</title>
<polygon fill="none" stroke="black" points="16,-78 16,-130 720,-130 720,-78 16,-78"/>
</g>
<!-- AddCategoryComponent -->
<g id="node1" class="node">
<title>AddCategoryComponent</title>
<polygon fill="#ffffb3" stroke="black" points="712.26,-122 555.74,-122 555.74,-86 712.26,-86 712.26,-122"/>
<text text-anchor="middle" x="634" y="-99.8" font-family="Times,serif" font-size="14.00">AddCategoryComponent</text>
</g>
<!-- CategoryModule -->
<g id="node5" class="node">
<title>CategoryModule</title>
<polygon fill="#8dd3c7" stroke="black" points="689.37,-187 686.37,-191 665.37,-191 662.37,-187 578.63,-187 578.63,-151 689.37,-151 689.37,-187"/>
<text text-anchor="middle" x="634" y="-164.8" font-family="Times,serif" font-size="14.00">CategoryModule</text>
</g>
<!-- AddCategoryComponent&#45;&gt;CategoryModule -->
<g id="edge1" class="edge">
<title>AddCategoryComponent&#45;&gt;CategoryModule</title>
<path fill="none" stroke="black" d="M634,-122.11C634,-122.11 634,-140.99 634,-140.99"/>
<polygon fill="black" stroke="black" points="630.5,-140.99 634,-150.99 637.5,-140.99 630.5,-140.99"/>
</g>
<!-- CategoryFieldsComponent -->
<g id="node2" class="node">
<title>CategoryFieldsComponent</title>
<polygon fill="#ffffb3" stroke="black" points="537.37,-122 370.63,-122 370.63,-86 537.37,-86 537.37,-122"/>
<text text-anchor="middle" x="454" y="-99.8" font-family="Times,serif" font-size="14.00">CategoryFieldsComponent</text>
</g>
<!-- CategoryFieldsComponent&#45;&gt;CategoryModule -->
<g id="edge2" class="edge">
<title>CategoryFieldsComponent&#45;&gt;CategoryModule</title>
<path fill="none" stroke="black" d="M454,-122.03C454,-138.4 454,-160 454,-160 454,-160 568.53,-160 568.53,-160"/>
<polygon fill="black" stroke="black" points="568.53,-163.5 578.53,-160 568.53,-156.5 568.53,-163.5"/>
</g>
<!-- CategoryListComponent -->
<g id="node3" class="node">
<title>CategoryListComponent</title>
<polygon fill="#ffffb3" stroke="black" points="352.43,-122 197.57,-122 197.57,-86 352.43,-86 352.43,-122"/>
<text text-anchor="middle" x="275" y="-99.8" font-family="Times,serif" font-size="14.00">CategoryListComponent</text>
</g>
<!-- CategoryListComponent&#45;&gt;CategoryModule -->
<g id="edge3" class="edge">
<title>CategoryListComponent&#45;&gt;CategoryModule</title>
<path fill="none" stroke="black" d="M275,-122.11C275,-141.34 275,-169 275,-169 275,-169 568.3,-169 568.3,-169"/>
<polygon fill="black" stroke="black" points="568.3,-172.5 578.3,-169 568.3,-165.5 568.3,-172.5"/>
</g>
<!-- EditCategoryComponent -->
<g id="node4" class="node">
<title>EditCategoryComponent</title>
<polygon fill="#ffffb3" stroke="black" points="179.98,-122 24.02,-122 24.02,-86 179.98,-86 179.98,-122"/>
<text text-anchor="middle" x="102" y="-99.8" font-family="Times,serif" font-size="14.00">EditCategoryComponent</text>
</g>
<!-- EditCategoryComponent&#45;&gt;CategoryModule -->
<g id="edge4" class="edge">
<title>EditCategoryComponent&#45;&gt;CategoryModule</title>
<path fill="none" stroke="black" d="M102,-122.29C102,-144.21 102,-178 102,-178 102,-178 568.57,-178 568.57,-178"/>
<polygon fill="black" stroke="black" points="568.57,-181.5 578.57,-178 568.57,-174.5 568.57,-181.5"/>
</g>
<!-- CategoryRoutingModule -->
<g id="node6" class="node">
<title>CategoryRoutingModule</title>
<polygon fill="#8dd3c7" stroke="black" points="1133.98,-122 1130.98,-126 1109.98,-126 1106.98,-122 978.02,-122 978.02,-86 1133.98,-86 1133.98,-122"/>
<text text-anchor="middle" x="1056" y="-99.8" font-family="Times,serif" font-size="14.00">CategoryRoutingModule</text>
</g>
<!-- CategoryRoutingModule&#45;&gt;CategoryModule -->
<g id="edge5" class="edge">
<title>CategoryRoutingModule&#45;&gt;CategoryModule</title>
<path fill="none" stroke="black" d="M1056,-122.29C1056,-144.21 1056,-178 1056,-178 1056,-178 699.6,-178 699.6,-178"/>
<polygon fill="black" stroke="black" points="699.6,-174.5 689.6,-178 699.6,-181.5 699.6,-174.5"/>
</g>
<!-- LayoutModule -->
<g id="node7" class="node">
<title>LayoutModule</title>
<polygon fill="#8dd3c7" stroke="black" points="959.71,-122 956.71,-126 935.71,-126 932.71,-122 860.29,-122 860.29,-86 959.71,-86 959.71,-122"/>
<text text-anchor="middle" x="910" y="-99.8" font-family="Times,serif" font-size="14.00">LayoutModule</text>
</g>
<!-- LayoutModule&#45;&gt;CategoryModule -->
<g id="edge6" class="edge">
<title>LayoutModule&#45;&gt;CategoryModule</title>
<path fill="none" stroke="black" d="M910,-122.11C910,-141.34 910,-169 910,-169 910,-169 699.52,-169 699.52,-169"/>
<polygon fill="black" stroke="black" points="699.52,-165.5 689.52,-169 699.52,-172.5 699.52,-165.5"/>
</g>
<!-- MaterialModule -->
<g id="node8" class="node">
<title>MaterialModule</title>
<polygon fill="#8dd3c7" stroke="black" points="842.47,-122 839.47,-126 818.47,-126 815.47,-122 735.53,-122 735.53,-86 842.47,-86 842.47,-122"/>
<text text-anchor="middle" x="789" y="-99.8" font-family="Times,serif" font-size="14.00">MaterialModule</text>
</g>
<!-- MaterialModule&#45;&gt;CategoryModule -->
<g id="edge7" class="edge">
<title>MaterialModule&#45;&gt;CategoryModule</title>
<path fill="none" stroke="black" d="M789,-122.03C789,-138.4 789,-160 789,-160 789,-160 699.52,-160 699.52,-160"/>
<polygon fill="black" stroke="black" points="699.52,-156.5 689.52,-160 699.52,-163.5 699.52,-156.5"/>
</g>
</g>
</svg>
