<?xml version="1.0" encoding="UTF-8" standalone="no"?>
<!DOCTYPE svg PUBLIC "-//W3C//DTD SVG 1.1//EN"
 "http://www.w3.org/Graphics/SVG/1.1/DTD/svg11.dtd">
<!-- Generated by graphviz version 2.47.0 (20210316.0004)
 -->
<!-- Title: dependencies Pages: 1 -->
<svg width="1324pt" height="211pt"
 viewBox="0.00 0.00 1324.00 211.00" xmlns="http://www.w3.org/2000/svg" xmlns:xlink="http://www.w3.org/1999/xlink">
<g id="graph0" class="graph" transform="scale(1 1) rotate(0) translate(4 207)">
<title>dependencies</title>
<polygon fill="white" stroke="transparent" points="-4,4 -4,-207 1320,-207 1320,4 -4,4"/>
<text text-anchor="start" x="637.01" y="-42.4" font-family="Times-12" font-weight="bold" font-size="14.00">Legend</text>
<polygon fill="#ffffb3" stroke="transparent" points="424,-10 424,-30 444,-30 444,-10 424,-10"/>
<text text-anchor="start" x="447.63" y="-15.4" font-family="Times-12" font-size="14.00"> &#160;Declarations</text>
<polygon fill="#8dd3c7" stroke="transparent" points="537,-10 537,-30 557,-30 557,-10 537,-10"/>
<text text-anchor="start" x="560.73" y="-15.4" font-family="Times-12" font-size="14.00"> &#160;Module</text>
<polygon fill="#80b1d3" stroke="transparent" points="623,-10 623,-30 643,-30 643,-10 623,-10"/>
<text text-anchor="start" x="646.78" y="-15.4" font-family="Times-12" font-size="14.00"> &#160;Bootstrap</text>
<polygon fill="#fdb462" stroke="transparent" points="720,-10 720,-30 740,-30 740,-10 720,-10"/>
<text text-anchor="start" x="743.67" y="-15.4" font-family="Times-12" font-size="14.00"> &#160;Providers</text>
<polygon fill="#fb8072" stroke="transparent" points="816,-10 816,-30 836,-30 836,-10 816,-10"/>
<text text-anchor="start" x="839.73" y="-15.4" font-family="Times-12" font-size="14.00"> &#160;Exports</text>
<g id="clust1" class="cluster">
<title>cluster_ContactModule</title>
<polygon fill="none" stroke="black" stroke-dasharray="1,5" points="8,-70 8,-195 1308,-195 1308,-70 8,-70"/>
</g>
<g id="clust2" class="cluster">
<title>cluster_ContactModule_declarations</title>
<polygon fill="none" stroke="black" points="628,-78 628,-130 1300,-130 1300,-78 628,-78"/>
</g>
<g id="clust7" class="cluster">
<title>cluster_ContactModule_imports</title>
<polygon fill="none" stroke="black" points="16,-78 16,-130 620,-130 620,-78 16,-78"/>
</g>
<!-- AddContactComponent -->
<g id="node1" class="node">
<title>AddContactComponent</title>
<polygon fill="#ffffb3" stroke="black" points="1292.49,-122 1143.51,-122 1143.51,-86 1292.49,-86 1292.49,-122"/>
<text text-anchor="middle" x="1218" y="-99.8" font-family="Times,serif" font-size="14.00">AddContactComponent</text>
</g>
<!-- ContactModule -->
<g id="node5" class="node">
<title>ContactModule</title>
<polygon fill="#8dd3c7" stroke="black" points="675.6,-187 672.6,-191 651.6,-191 648.6,-187 572.4,-187 572.4,-151 675.6,-151 675.6,-187"/>
<text text-anchor="middle" x="624" y="-164.8" font-family="Times,serif" font-size="14.00">ContactModule</text>
</g>
<!-- AddContactComponent&#45;&gt;ContactModule -->
<g id="edge1" class="edge">
<title>AddContactComponent&#45;&gt;ContactModule</title>
<path fill="none" stroke="black" d="M1218,-122.29C1218,-144.21 1218,-178 1218,-178 1218,-178 685.67,-178 685.67,-178"/>
<polygon fill="black" stroke="black" points="685.67,-174.5 675.67,-178 685.67,-181.5 685.67,-174.5"/>
</g>
<!-- ContactFieldsComponent -->
<g id="node2" class="node">
<title>ContactFieldsComponent</title>
<polygon fill="#ffffb3" stroke="black" points="1125.6,-122 966.4,-122 966.4,-86 1125.6,-86 1125.6,-122"/>
<text text-anchor="middle" x="1046" y="-99.8" font-family="Times,serif" font-size="14.00">ContactFieldsComponent</text>
</g>
<!-- ContactFieldsComponent&#45;&gt;ContactModule -->
<g id="edge2" class="edge">
<title>ContactFieldsComponent&#45;&gt;ContactModule</title>
<path fill="none" stroke="black" d="M1046,-122.11C1046,-141.34 1046,-169 1046,-169 1046,-169 685.75,-169 685.75,-169"/>
<polygon fill="black" stroke="black" points="685.75,-165.5 675.75,-169 685.75,-172.5 685.75,-165.5"/>
</g>
<!-- ContactListComponent -->
<g id="node3" class="node">
<title>ContactListComponent</title>
<polygon fill="#ffffb3" stroke="black" points="948.16,-122 801.84,-122 801.84,-86 948.16,-86 948.16,-122"/>
<text text-anchor="middle" x="875" y="-99.8" font-family="Times,serif" font-size="14.00">ContactListComponent</text>
</g>
<!-- ContactListComponent&#45;&gt;ContactModule -->
<g id="edge3" class="edge">
<title>ContactListComponent&#45;&gt;ContactModule</title>
<path fill="none" stroke="black" d="M875,-122.03C875,-138.4 875,-160 875,-160 875,-160 685.7,-160 685.7,-160"/>
<polygon fill="black" stroke="black" points="685.7,-156.5 675.7,-160 685.7,-163.5 685.7,-156.5"/>
</g>
<!-- EditContactComponent -->
<g id="node4" class="node">
<title>EditContactComponent</title>
<polygon fill="#ffffb3" stroke="black" points="784.21,-122 635.79,-122 635.79,-86 784.21,-86 784.21,-122"/>
<text text-anchor="middle" x="710" y="-99.8" font-family="Times,serif" font-size="14.00">EditContactComponent</text>
</g>
<!-- EditContactComponent&#45;&gt;ContactModule -->
<g id="edge4" class="edge">
<title>EditContactComponent&#45;&gt;ContactModule</title>
<path fill="none" stroke="black" d="M655.72,-122.11C655.72,-122.11 655.72,-140.99 655.72,-140.99"/>
<polygon fill="black" stroke="black" points="652.22,-140.99 655.72,-150.99 659.22,-140.99 652.22,-140.99"/>
</g>
<!-- ContactRoutingModule -->
<g id="node6" class="node">
<title>ContactRoutingModule</title>
<polygon fill="#8dd3c7" stroke="black" points="612.21,-122 609.21,-126 588.21,-126 585.21,-122 463.79,-122 463.79,-86 612.21,-86 612.21,-122"/>
<text text-anchor="middle" x="538" y="-99.8" font-family="Times,serif" font-size="14.00">ContactRoutingModule</text>
</g>
<!-- ContactRoutingModule&#45;&gt;ContactModule -->
<g id="edge5" class="edge">
<title>ContactRoutingModule&#45;&gt;ContactModule</title>
<path fill="none" stroke="black" d="M592.28,-122.11C592.28,-122.11 592.28,-140.99 592.28,-140.99"/>
<polygon fill="black" stroke="black" points="588.78,-140.99 592.28,-150.99 595.78,-140.99 588.78,-140.99"/>
</g>
<!-- EditionLayoutModule -->
<g id="node7" class="node">
<title>EditionLayoutModule</title>
<polygon fill="#8dd3c7" stroke="black" points="446.43,-122 443.43,-126 422.43,-126 419.43,-122 305.57,-122 305.57,-86 446.43,-86 446.43,-122"/>
<text text-anchor="middle" x="376" y="-99.8" font-family="Times,serif" font-size="14.00">EditionLayoutModule</text>
</g>
<!-- EditionLayoutModule&#45;&gt;ContactModule -->
<g id="edge6" class="edge">
<title>EditionLayoutModule&#45;&gt;ContactModule</title>
<path fill="none" stroke="black" d="M376,-122.03C376,-138.4 376,-160 376,-160 376,-160 562.31,-160 562.31,-160"/>
<polygon fill="black" stroke="black" points="562.31,-163.5 572.31,-160 562.31,-156.5 562.31,-163.5"/>
</g>
<!-- ListingLayoutModule -->
<g id="node8" class="node">
<title>ListingLayoutModule</title>
<polygon fill="#8dd3c7" stroke="black" points="287.38,-122 284.38,-126 263.38,-126 260.38,-122 148.62,-122 148.62,-86 287.38,-86 287.38,-122"/>
<text text-anchor="middle" x="218" y="-99.8" font-family="Times,serif" font-size="14.00">ListingLayoutModule</text>
</g>
<!-- ListingLayoutModule&#45;&gt;ContactModule -->
<g id="edge7" class="edge">
<title>ListingLayoutModule&#45;&gt;ContactModule</title>
<path fill="none" stroke="black" d="M218,-122.11C218,-141.34 218,-169 218,-169 218,-169 562.17,-169 562.17,-169"/>
<polygon fill="black" stroke="black" points="562.17,-172.5 572.17,-169 562.17,-165.5 562.17,-172.5"/>
</g>
<!-- MaterialModule -->
<g id="node9" class="node">
<title>MaterialModule</title>
<polygon fill="#8dd3c7" stroke="black" points="130.47,-122 127.47,-126 106.47,-126 103.47,-122 23.53,-122 23.53,-86 130.47,-86 130.47,-122"/>
<text text-anchor="middle" x="77" y="-99.8" font-family="Times,serif" font-size="14.00">MaterialModule</text>
</g>
<!-- MaterialModule&#45;&gt;ContactModule -->
<g id="edge8" class="edge">
<title>MaterialModule&#45;&gt;ContactModule</title>
<path fill="none" stroke="black" d="M77,-122.29C77,-144.21 77,-178 77,-178 77,-178 562.05,-178 562.05,-178"/>
<polygon fill="black" stroke="black" points="562.05,-181.5 572.05,-178 562.05,-174.5 562.05,-181.5"/>
</g>
</g>
</svg>
