<?xml version="1.0" encoding="UTF-8" standalone="no"?>
<!DOCTYPE svg PUBLIC "-//W3C//DTD SVG 1.1//EN"
 "http://www.w3.org/Graphics/SVG/1.1/DTD/svg11.dtd">
<!-- Generated by graphviz version 2.47.0 (20210316.0004)
 -->
<!-- Title: dependencies Pages: 1 -->
<svg width="790pt" height="211pt"
 viewBox="0.00 0.00 790.00 211.00" xmlns="http://www.w3.org/2000/svg" xmlns:xlink="http://www.w3.org/1999/xlink">
<g id="graph0" class="graph" transform="scale(1 1) rotate(0) translate(4 207)">
<title>dependencies</title>
<polygon fill="white" stroke="transparent" points="-4,4 -4,-207 786,-207 786,4 -4,4"/>
<text text-anchor="start" x="370.01" y="-42.4" font-family="Times-12" font-weight="bold" font-size="14.00">Legend</text>
<polygon fill="#ffffb3" stroke="transparent" points="157,-10 157,-30 177,-30 177,-10 157,-10"/>
<text text-anchor="start" x="180.63" y="-15.4" font-family="Times-12" font-size="14.00"> &#160;Declarations</text>
<polygon fill="#8dd3c7" stroke="transparent" points="270,-10 270,-30 290,-30 290,-10 270,-10"/>
<text text-anchor="start" x="293.73" y="-15.4" font-family="Times-12" font-size="14.00"> &#160;Module</text>
<polygon fill="#80b1d3" stroke="transparent" points="356,-10 356,-30 376,-30 376,-10 356,-10"/>
<text text-anchor="start" x="379.78" y="-15.4" font-family="Times-12" font-size="14.00"> &#160;Bootstrap</text>
<polygon fill="#fdb462" stroke="transparent" points="453,-10 453,-30 473,-30 473,-10 453,-10"/>
<text text-anchor="start" x="476.67" y="-15.4" font-family="Times-12" font-size="14.00"> &#160;Providers</text>
<polygon fill="#fb8072" stroke="transparent" points="549,-10 549,-30 569,-30 569,-10 549,-10"/>
<text text-anchor="start" x="572.73" y="-15.4" font-family="Times-12" font-size="14.00"> &#160;Exports</text>
<g id="clust1" class="cluster">
<title>cluster_ContactModule</title>
<polygon fill="none" stroke="black" stroke-dasharray="1,5" points="8,-70 8,-195 774,-195 774,-70 8,-70"/>
</g>
<g id="clust2" class="cluster">
<title>cluster_ContactModule_declarations</title>
<polygon fill="none" stroke="black" points="430,-78 430,-130 766,-130 766,-78 430,-78"/>
</g>
<g id="clust5" class="cluster">
<title>cluster_ContactModule_imports</title>
<polygon fill="none" stroke="black" points="16,-78 16,-130 422,-130 422,-78 16,-78"/>
</g>
<!-- ContactFormComponent -->
<g id="node1" class="node">
<title>ContactFormComponent</title>
<polygon fill="#ffffb3" stroke="black" points="757.71,-122 602.29,-122 602.29,-86 757.71,-86 757.71,-122"/>
<text text-anchor="middle" x="680" y="-99.8" font-family="Times,serif" font-size="14.00">ContactFormComponent</text>
</g>
<!-- ContactModule -->
<g id="node3" class="node">
<title>ContactModule</title>
<polygon fill="#8dd3c7" stroke="black" points="391.6,-187 388.6,-191 367.6,-191 364.6,-187 288.4,-187 288.4,-151 391.6,-151 391.6,-187"/>
<text text-anchor="middle" x="340" y="-164.8" font-family="Times,serif" font-size="14.00">ContactModule</text>
</g>
<!-- ContactFormComponent&#45;&gt;ContactModule -->
<g id="edge1" class="edge">
<title>ContactFormComponent&#45;&gt;ContactModule</title>
<path fill="none" stroke="black" d="M680,-122.28C680,-143.32 680,-175 680,-175 680,-175 401.64,-175 401.64,-175"/>
<polygon fill="black" stroke="black" points="401.64,-171.5 391.64,-175 401.64,-178.5 401.64,-171.5"/>
</g>
<!-- ContactListComponent -->
<g id="node2" class="node">
<title>ContactListComponent</title>
<polygon fill="#ffffb3" stroke="black" points="584.16,-122 437.84,-122 437.84,-86 584.16,-86 584.16,-122"/>
<text text-anchor="middle" x="511" y="-99.8" font-family="Times,serif" font-size="14.00">ContactListComponent</text>
</g>
<!-- ContactListComponent&#45;&gt;ContactModule -->
<g id="edge2" class="edge">
<title>ContactListComponent&#45;&gt;ContactModule</title>
<path fill="none" stroke="black" d="M511,-122.02C511,-139.37 511,-163 511,-163 511,-163 401.77,-163 401.77,-163"/>
<polygon fill="black" stroke="black" points="401.77,-159.5 391.77,-163 401.77,-166.5 401.77,-159.5"/>
</g>
<!-- ContactRoutingModule -->
<g id="node4" class="node">
<title>ContactRoutingModule</title>
<polygon fill="#8dd3c7" stroke="black" points="414.21,-122 411.21,-126 390.21,-126 387.21,-122 265.79,-122 265.79,-86 414.21,-86 414.21,-122"/>
<text text-anchor="middle" x="340" y="-99.8" font-family="Times,serif" font-size="14.00">ContactRoutingModule</text>
</g>
<!-- ContactRoutingModule&#45;&gt;ContactModule -->
<g id="edge3" class="edge">
<title>ContactRoutingModule&#45;&gt;ContactModule</title>
<path fill="none" stroke="black" d="M340,-122.11C340,-122.11 340,-140.99 340,-140.99"/>
<polygon fill="black" stroke="black" points="336.5,-140.99 340,-150.99 343.5,-140.99 336.5,-140.99"/>
</g>
<!-- LayoutModule -->
<g id="node5" class="node">
<title>LayoutModule</title>
<polygon fill="#8dd3c7" stroke="black" points="247.71,-122 244.71,-126 223.71,-126 220.71,-122 148.29,-122 148.29,-86 247.71,-86 247.71,-122"/>
<text text-anchor="middle" x="198" y="-99.8" font-family="Times,serif" font-size="14.00">LayoutModule</text>
</g>
<!-- LayoutModule&#45;&gt;ContactModule -->
<g id="edge4" class="edge">
<title>LayoutModule&#45;&gt;ContactModule</title>
<path fill="none" stroke="black" d="M198,-122.02C198,-139.37 198,-163 198,-163 198,-163 278.33,-163 278.33,-163"/>
<polygon fill="black" stroke="black" points="278.33,-166.5 288.33,-163 278.33,-159.5 278.33,-166.5"/>
</g>
<!-- MaterialModule -->
<g id="node6" class="node">
<title>MaterialModule</title>
<polygon fill="#8dd3c7" stroke="black" points="130.47,-122 127.47,-126 106.47,-126 103.47,-122 23.53,-122 23.53,-86 130.47,-86 130.47,-122"/>
<text text-anchor="middle" x="77" y="-99.8" font-family="Times,serif" font-size="14.00">MaterialModule</text>
</g>
<!-- MaterialModule&#45;&gt;ContactModule -->
<g id="edge5" class="edge">
<title>MaterialModule&#45;&gt;ContactModule</title>
<path fill="none" stroke="black" d="M77,-122.28C77,-143.32 77,-175 77,-175 77,-175 278.35,-175 278.35,-175"/>
<polygon fill="black" stroke="black" points="278.35,-178.5 288.35,-175 278.35,-171.5 278.35,-178.5"/>
</g>
</g>
</svg>
