<?xml version="1.0" encoding="UTF-8" standalone="no"?>
<!DOCTYPE svg PUBLIC "-//W3C//DTD SVG 1.1//EN"
 "http://www.w3.org/Graphics/SVG/1.1/DTD/svg11.dtd">
<!-- Generated by graphviz version 2.47.0 (20210316.0004)
 -->
<!-- Title: dependencies Pages: 1 -->
<svg width="504pt" height="284pt"
 viewBox="0.00 0.00 504.00 284.00" xmlns="http://www.w3.org/2000/svg" xmlns:xlink="http://www.w3.org/1999/xlink">
<g id="graph0" class="graph" transform="scale(1 1) rotate(0) translate(4 280)">
<title>dependencies</title>
<polygon fill="white" stroke="transparent" points="-4,4 -4,-280 500,-280 500,4 -4,4"/>
<text text-anchor="start" x="227.01" y="-42.4" font-family="Times-12" font-weight="bold" font-size="14.00">Legend</text>
<polygon fill="#ffffb3" stroke="transparent" points="14,-10 14,-30 34,-30 34,-10 14,-10"/>
<text text-anchor="start" x="37.63" y="-15.4" font-family="Times-12" font-size="14.00"> &#160;Declarations</text>
<polygon fill="#8dd3c7" stroke="transparent" points="127,-10 127,-30 147,-30 147,-10 127,-10"/>
<text text-anchor="start" x="150.73" y="-15.4" font-family="Times-12" font-size="14.00"> &#160;Module</text>
<polygon fill="#80b1d3" stroke="transparent" points="213,-10 213,-30 233,-30 233,-10 213,-10"/>
<text text-anchor="start" x="236.78" y="-15.4" font-family="Times-12" font-size="14.00"> &#160;Bootstrap</text>
<polygon fill="#fdb462" stroke="transparent" points="310,-10 310,-30 330,-30 330,-10 310,-10"/>
<text text-anchor="start" x="333.67" y="-15.4" font-family="Times-12" font-size="14.00"> &#160;Providers</text>
<polygon fill="#fb8072" stroke="transparent" points="406,-10 406,-30 426,-30 426,-10 406,-10"/>
<text text-anchor="start" x="429.73" y="-15.4" font-family="Times-12" font-size="14.00"> &#160;Exports</text>
<g id="clust1" class="cluster">
<title>cluster_BaseLayoutModule</title>
<polygon fill="none" stroke="black" stroke-dasharray="1,5" points="86,-70 86,-268 410,-268 410,-70 86,-70"/>
</g>
<g id="clust2" class="cluster">
<title>cluster_BaseLayoutModule_declarations</title>
<polygon fill="none" stroke="black" points="224,-78 224,-130 402,-130 402,-78 224,-78"/>
</g>
<g id="clust4" class="cluster">
<title>cluster_BaseLayoutModule_imports</title>
<polygon fill="none" stroke="black" points="94,-78 94,-130 216,-130 216,-78 94,-78"/>
</g>
<g id="clust5" class="cluster">
<title>cluster_BaseLayoutModule_exports</title>
<polygon fill="none" stroke="black" points="158,-208 158,-260 338,-260 338,-208 158,-208"/>
</g>
<!-- LayoutHeaderComponent -->
<g id="node1" class="node">
<title>LayoutHeaderComponent</title>
<polygon fill="#ffffb3" stroke="black" points="393.9,-122 232.1,-122 232.1,-86 393.9,-86 393.9,-122"/>
<text text-anchor="middle" x="313" y="-99.8" font-family="Times,serif" font-size="14.00">LayoutHeaderComponent</text>
</g>
<!-- BaseLayoutModule -->
<g id="node2" class="node">
<title>BaseLayoutModule</title>
<polygon fill="#8dd3c7" stroke="black" points="311.42,-187 308.42,-191 287.42,-191 284.42,-187 184.58,-187 184.58,-151 311.42,-151 311.42,-187"/>
<text text-anchor="middle" x="248" y="-164.8" font-family="Times,serif" font-size="14.00">BaseLayoutModule</text>
</g>
<!-- LayoutHeaderComponent&#45;&gt;BaseLayoutModule -->
<g id="edge1" class="edge">
<title>LayoutHeaderComponent&#45;&gt;BaseLayoutModule</title>
<path fill="none" stroke="black" d="M271.75,-122.11C271.75,-122.11 271.75,-140.99 271.75,-140.99"/>
<polygon fill="black" stroke="black" points="268.25,-140.99 271.75,-150.99 275.25,-140.99 268.25,-140.99"/>
</g>
<!-- LayoutHeaderComponent  -->
<g id="node4" class="node">
<title>LayoutHeaderComponent </title>
<polygon fill="#fb8072" stroke="black" points="330.4,-252 165.6,-252 165.6,-216 330.4,-216 330.4,-252"/>
<text text-anchor="middle" x="248" y="-229.8" font-family="Times,serif" font-size="14.00">LayoutHeaderComponent </text>
</g>
<!-- BaseLayoutModule&#45;&gt;LayoutHeaderComponent  -->
<g id="edge3" class="edge">
<title>BaseLayoutModule&#45;&gt;LayoutHeaderComponent </title>
<path fill="none" stroke="black" stroke-dasharray="5,2" d="M248,-187.11C248,-187.11 248,-205.99 248,-205.99"/>
<polygon fill="black" stroke="black" points="244.5,-205.99 248,-215.99 251.5,-205.99 244.5,-205.99"/>
</g>
<!-- MaterialModule -->
<g id="node3" class="node">
<title>MaterialModule</title>
<polygon fill="#8dd3c7" stroke="black" points="208.47,-122 205.47,-126 184.47,-126 181.47,-122 101.53,-122 101.53,-86 208.47,-86 208.47,-122"/>
<text text-anchor="middle" x="155" y="-99.8" font-family="Times,serif" font-size="14.00">MaterialModule</text>
</g>
<!-- MaterialModule&#45;&gt;BaseLayoutModule -->
<g id="edge2" class="edge">
<title>MaterialModule&#45;&gt;BaseLayoutModule</title>
<path fill="none" stroke="black" d="M196.64,-122.11C196.64,-122.11 196.64,-140.99 196.64,-140.99"/>
<polygon fill="black" stroke="black" points="193.14,-140.99 196.64,-150.99 200.14,-140.99 193.14,-140.99"/>
</g>
</g>
</svg>
