<?xml version="1.0" encoding="UTF-8" standalone="no"?>
<!DOCTYPE svg PUBLIC "-//W3C//DTD SVG 1.1//EN"
 "http://www.w3.org/Graphics/SVG/1.1/DTD/svg11.dtd">
<!-- Generated by graphviz version 2.47.0 (20210316.0004)
 -->
<!-- Title: dependencies Pages: 1 -->
<svg width="1405pt" height="284pt"
 viewBox="0.00 0.00 1405.00 284.00" xmlns="http://www.w3.org/2000/svg" xmlns:xlink="http://www.w3.org/1999/xlink">
<g id="graph0" class="graph" transform="scale(1 1) rotate(0) translate(4 280)">
<title>dependencies</title>
<polygon fill="white" stroke="transparent" points="-4,4 -4,-280 1401,-280 1401,4 -4,4"/>
<text text-anchor="start" x="677.51" y="-42.4" font-family="Times-12" font-weight="bold" font-size="14.00">Legend</text>
<polygon fill="#ffffb3" stroke="transparent" points="464.5,-10 464.5,-30 484.5,-30 484.5,-10 464.5,-10"/>
<text text-anchor="start" x="488.13" y="-15.4" font-family="Times-12" font-size="14.00"> &#160;Declarations</text>
<polygon fill="#8dd3c7" stroke="transparent" points="577.5,-10 577.5,-30 597.5,-30 597.5,-10 577.5,-10"/>
<text text-anchor="start" x="601.23" y="-15.4" font-family="Times-12" font-size="14.00"> &#160;Module</text>
<polygon fill="#80b1d3" stroke="transparent" points="663.5,-10 663.5,-30 683.5,-30 683.5,-10 663.5,-10"/>
<text text-anchor="start" x="687.28" y="-15.4" font-family="Times-12" font-size="14.00"> &#160;Bootstrap</text>
<polygon fill="#fdb462" stroke="transparent" points="760.5,-10 760.5,-30 780.5,-30 780.5,-10 760.5,-10"/>
<text text-anchor="start" x="784.17" y="-15.4" font-family="Times-12" font-size="14.00"> &#160;Providers</text>
<polygon fill="#fb8072" stroke="transparent" points="856.5,-10 856.5,-30 876.5,-30 876.5,-10 856.5,-10"/>
<text text-anchor="start" x="880.23" y="-15.4" font-family="Times-12" font-size="14.00"> &#160;Exports</text>
<g id="clust1" class="cluster">
<title>cluster_LayoutModule</title>
<polygon fill="none" stroke="black" stroke-dasharray="1,5" points="8,-70 8,-268 1389,-268 1389,-70 8,-70"/>
</g>
<g id="clust9" class="cluster">
<title>cluster_LayoutModule_imports</title>
<polygon fill="none" stroke="black" points="1259,-78 1259,-130 1381,-130 1381,-78 1259,-78"/>
</g>
<g id="clust2" class="cluster">
<title>cluster_LayoutModule_declarations</title>
<polygon fill="none" stroke="black" points="186,-78 186,-130 1251,-130 1251,-78 186,-78"/>
</g>
<g id="clust10" class="cluster">
<title>cluster_LayoutModule_exports</title>
<polygon fill="none" stroke="black" points="144,-208 144,-260 1231,-260 1231,-208 144,-208"/>
</g>
<g id="clust12" class="cluster">
<title>cluster_LayoutModule_providers</title>
<polygon fill="none" stroke="black" points="16,-78 16,-130 178,-130 178,-78 16,-78"/>
</g>
<!-- AddButtonComponent -->
<g id="node1" class="node">
<title>AddButtonComponent</title>
<polygon fill="#ffffb3" stroke="black" points="1242.56,-122 1099.44,-122 1099.44,-86 1242.56,-86 1242.56,-122"/>
<text text-anchor="middle" x="1171" y="-99.8" font-family="Times,serif" font-size="14.00">AddButtonComponent</text>
</g>
<!-- LayoutModule -->
<g id="node7" class="node">
<title>LayoutModule</title>
<polygon fill="#8dd3c7" stroke="black" points="745.71,-187 742.71,-191 721.71,-191 718.71,-187 646.29,-187 646.29,-151 745.71,-151 745.71,-187"/>
<text text-anchor="middle" x="696" y="-164.8" font-family="Times,serif" font-size="14.00">LayoutModule</text>
</g>
<!-- AddButtonComponent&#45;&gt;LayoutModule -->
<g id="edge1" class="edge">
<title>AddButtonComponent&#45;&gt;LayoutModule</title>
<path fill="none" stroke="black" d="M1160.88,-122.02C1160.88,-139.37 1160.88,-163 1160.88,-163 1160.88,-163 755.75,-163 755.75,-163"/>
<polygon fill="black" stroke="black" points="755.75,-159.5 745.75,-163 755.75,-166.5 755.75,-159.5"/>
</g>
<!-- ConfirmModalComponent -->
<g id="node2" class="node">
<title>ConfirmModalComponent</title>
<polygon fill="#ffffb3" stroke="black" points="1081.82,-122 916.18,-122 916.18,-86 1081.82,-86 1081.82,-122"/>
<text text-anchor="middle" x="999" y="-99.8" font-family="Times,serif" font-size="14.00">ConfirmModalComponent</text>
</g>
<!-- ConfirmModalComponent&#45;&gt;LayoutModule -->
<g id="edge2" class="edge">
<title>ConfirmModalComponent&#45;&gt;LayoutModule</title>
<path fill="none" stroke="black" d="M986.88,-122.24C986.88,-137.57 986.88,-157 986.88,-157 986.88,-157 755.67,-157 755.67,-157"/>
<polygon fill="black" stroke="black" points="755.67,-153.5 745.67,-157 755.67,-160.5 755.67,-153.5"/>
</g>
<!-- EditionLayoutComponent -->
<g id="node3" class="node">
<title>EditionLayoutComponent</title>
<polygon fill="#ffffb3" stroke="black" points="898.21,-122 735.79,-122 735.79,-86 898.21,-86 898.21,-122"/>
<text text-anchor="middle" x="817" y="-99.8" font-family="Times,serif" font-size="14.00">EditionLayoutComponent</text>
</g>
<!-- EditionLayoutComponent&#45;&gt;LayoutModule -->
<g id="edge3" class="edge">
<title>EditionLayoutComponent&#45;&gt;LayoutModule</title>
<path fill="none" stroke="black" d="M740.75,-122.11C740.75,-122.11 740.75,-140.99 740.75,-140.99"/>
<polygon fill="black" stroke="black" points="737.25,-140.99 740.75,-150.99 744.25,-140.99 737.25,-140.99"/>
</g>
<!-- LayoutHeaderComponent -->
<g id="node4" class="node">
<title>LayoutHeaderComponent</title>
<polygon fill="#ffffb3" stroke="black" points="717.9,-122 556.1,-122 556.1,-86 717.9,-86 717.9,-122"/>
<text text-anchor="middle" x="637" y="-99.8" font-family="Times,serif" font-size="14.00">LayoutHeaderComponent</text>
</g>
<!-- LayoutHeaderComponent&#45;&gt;LayoutModule -->
<g id="edge4" class="edge">
<title>LayoutHeaderComponent&#45;&gt;LayoutModule</title>
<path fill="none" stroke="black" d="M682.05,-122.11C682.05,-122.11 682.05,-140.99 682.05,-140.99"/>
<polygon fill="black" stroke="black" points="678.55,-140.99 682.05,-150.99 685.55,-140.99 678.55,-140.99"/>
</g>
<!-- ListingLayoutComponent -->
<g id="node5" class="node">
<title>ListingLayoutComponent</title>
<polygon fill="#ffffb3" stroke="black" points="538.16,-122 377.84,-122 377.84,-86 538.16,-86 538.16,-122"/>
<text text-anchor="middle" x="458" y="-99.8" font-family="Times,serif" font-size="14.00">ListingLayoutComponent</text>
</g>
<!-- ListingLayoutComponent&#45;&gt;LayoutModule -->
<g id="edge5" class="edge">
<title>ListingLayoutComponent&#45;&gt;LayoutModule</title>
<path fill="none" stroke="black" d="M530.44,-122.24C530.44,-137.57 530.44,-157 530.44,-157 530.44,-157 636.33,-157 636.33,-157"/>
<polygon fill="black" stroke="black" points="636.33,-160.5 646.33,-157 636.33,-153.5 636.33,-160.5"/>
</g>
<!-- RemoveButtonComponent -->
<g id="node6" class="node">
<title>RemoveButtonComponent</title>
<polygon fill="#ffffb3" stroke="black" points="360.11,-122 193.89,-122 193.89,-86 360.11,-86 360.11,-122"/>
<text text-anchor="middle" x="277" y="-99.8" font-family="Times,serif" font-size="14.00">RemoveButtonComponent</text>
</g>
<!-- RemoveButtonComponent&#45;&gt;LayoutModule -->
<g id="edge6" class="edge">
<title>RemoveButtonComponent&#45;&gt;LayoutModule</title>
<path fill="none" stroke="black" d="M349.99,-122.02C349.99,-139.37 349.99,-163 349.99,-163 349.99,-163 636.06,-163 636.06,-163"/>
<polygon fill="black" stroke="black" points="636.06,-166.5 646.06,-163 636.06,-159.5 636.06,-166.5"/>
</g>
<!-- AddButtonComponent  -->
<g id="node9" class="node">
<title>AddButtonComponent </title>
<polygon fill="#fb8072" stroke="black" points="1222.56,-252 1075.44,-252 1075.44,-216 1222.56,-216 1222.56,-252"/>
<text text-anchor="middle" x="1149" y="-229.8" font-family="Times,serif" font-size="14.00">AddButtonComponent </text>
</g>
<!-- LayoutModule&#45;&gt;AddButtonComponent  -->
<g id="edge8" class="edge">
<title>LayoutModule&#45;&gt;AddButtonComponent </title>
<path fill="none" stroke="black" stroke-dasharray="5,2" d="M745.96,-175C852.09,-175 1090.44,-175 1090.44,-175 1090.44,-175 1090.44,-205.98 1090.44,-205.98"/>
<polygon fill="black" stroke="black" points="1086.94,-205.98 1090.44,-215.98 1093.94,-205.98 1086.94,-205.98"/>
</g>
<!-- ConfirmModalComponent  -->
<g id="node10" class="node">
<title>ConfirmModalComponent </title>
<polygon fill="#fb8072" stroke="black" points="1057.32,-252 888.68,-252 888.68,-216 1057.32,-216 1057.32,-252"/>
<text text-anchor="middle" x="973" y="-229.8" font-family="Times,serif" font-size="14.00">ConfirmModalComponent </text>
</g>
<!-- LayoutModule&#45;&gt;ConfirmModalComponent  -->
<g id="edge9" class="edge">
<title>LayoutModule&#45;&gt;ConfirmModalComponent </title>
<path fill="none" stroke="black" stroke-dasharray="5,2" d="M745.8,-181C804.26,-181 893.35,-181 893.35,-181 893.35,-181 893.35,-205.76 893.35,-205.76"/>
<polygon fill="black" stroke="black" points="889.85,-205.76 893.35,-215.76 896.85,-205.76 889.85,-205.76"/>
</g>
<!-- EditionLayoutComponent  -->
<g id="node11" class="node">
<title>EditionLayoutComponent </title>
<polygon fill="#fb8072" stroke="black" points="870.71,-252 705.29,-252 705.29,-216 870.71,-216 870.71,-252"/>
<text text-anchor="middle" x="788" y="-229.8" font-family="Times,serif" font-size="14.00">EditionLayoutComponent </text>
</g>
<!-- LayoutModule&#45;&gt;EditionLayoutComponent  -->
<g id="edge10" class="edge">
<title>LayoutModule&#45;&gt;EditionLayoutComponent </title>
<path fill="none" stroke="black" stroke-dasharray="5,2" d="M725.37,-187.11C725.37,-187.11 725.37,-205.99 725.37,-205.99"/>
<polygon fill="black" stroke="black" points="721.87,-205.99 725.37,-215.99 728.87,-205.99 721.87,-205.99"/>
</g>
<!-- LayoutHeaderComponent  -->
<g id="node12" class="node">
<title>LayoutHeaderComponent </title>
<polygon fill="#fb8072" stroke="black" points="687.4,-252 522.6,-252 522.6,-216 687.4,-216 687.4,-252"/>
<text text-anchor="middle" x="605" y="-229.8" font-family="Times,serif" font-size="14.00">LayoutHeaderComponent </text>
</g>
<!-- LayoutModule&#45;&gt;LayoutHeaderComponent  -->
<g id="edge11" class="edge">
<title>LayoutModule&#45;&gt;LayoutHeaderComponent </title>
<path fill="none" stroke="black" stroke-dasharray="5,2" d="M666.92,-187.11C666.92,-187.11 666.92,-205.99 666.92,-205.99"/>
<polygon fill="black" stroke="black" points="663.42,-205.99 666.92,-215.99 670.42,-205.99 663.42,-205.99"/>
</g>
<!-- ListingLayoutComponent  -->
<g id="node13" class="node">
<title>ListingLayoutComponent </title>
<polygon fill="#fb8072" stroke="black" points="504.16,-252 339.84,-252 339.84,-216 504.16,-216 504.16,-252"/>
<text text-anchor="middle" x="422" y="-229.8" font-family="Times,serif" font-size="14.00">ListingLayoutComponent </text>
</g>
<!-- LayoutModule&#45;&gt;ListingLayoutComponent  -->
<g id="edge12" class="edge">
<title>LayoutModule&#45;&gt;ListingLayoutComponent </title>
<path fill="none" stroke="black" stroke-dasharray="5,2" d="M646.2,-181C571.96,-181 440.88,-181 440.88,-181 440.88,-181 440.88,-205.76 440.88,-205.76"/>
<polygon fill="black" stroke="black" points="437.38,-205.76 440.88,-215.76 444.38,-205.76 437.38,-205.76"/>
</g>
<!-- RemoveButtonComponent  -->
<g id="node14" class="node">
<title>RemoveButtonComponent </title>
<polygon fill="#fb8072" stroke="black" points="321.61,-252 152.39,-252 152.39,-216 321.61,-216 321.61,-252"/>
<text text-anchor="middle" x="237" y="-229.8" font-family="Times,serif" font-size="14.00">RemoveButtonComponent </text>
</g>
<!-- LayoutModule&#45;&gt;RemoveButtonComponent  -->
<g id="edge13" class="edge">
<title>LayoutModule&#45;&gt;RemoveButtonComponent </title>
<path fill="none" stroke="black" stroke-dasharray="5,2" d="M646.17,-175C531.34,-175 257.88,-175 257.88,-175 257.88,-175 257.88,-205.98 257.88,-205.98"/>
<polygon fill="black" stroke="black" points="254.38,-205.98 257.88,-215.98 261.38,-205.98 254.38,-205.98"/>
</g>
<!-- MaterialModule -->
<g id="node8" class="node">
<title>MaterialModule</title>
<polygon fill="#8dd3c7" stroke="black" points="1373.47,-122 1370.47,-126 1349.47,-126 1346.47,-122 1266.53,-122 1266.53,-86 1373.47,-86 1373.47,-122"/>
<text text-anchor="middle" x="1320" y="-99.8" font-family="Times,serif" font-size="14.00">MaterialModule</text>
</g>
<!-- MaterialModule&#45;&gt;LayoutModule -->
<g id="edge7" class="edge">
<title>MaterialModule&#45;&gt;LayoutModule</title>
<path fill="none" stroke="black" d="M1320,-122.11C1320,-141.34 1320,-169 1320,-169 1320,-169 755.75,-169 755.75,-169"/>
<polygon fill="black" stroke="black" points="755.75,-165.5 745.75,-169 755.75,-172.5 755.75,-165.5"/>
</g>
<!-- ConfirmService -->
<g id="node15" class="node">
<title>ConfirmService</title>
<ellipse fill="#fdb462" stroke="black" cx="97" cy="-104" rx="72.93" ry="18"/>
<text text-anchor="middle" x="97" y="-99.8" font-family="Times,serif" font-size="14.00">ConfirmService</text>
</g>
<!-- ConfirmService&#45;&gt;LayoutModule -->
<g id="edge14" class="edge">
<title>ConfirmService&#45;&gt;LayoutModule</title>
<path fill="none" stroke="black" d="M160.96,-112.77C160.96,-130.51 160.96,-169 160.96,-169 160.96,-169 636.14,-169 636.14,-169"/>
<polygon fill="black" stroke="black" points="636.14,-172.5 646.14,-169 636.14,-165.5 636.14,-172.5"/>
</g>
</g>
</svg>
