<?xml version="1.0" encoding="UTF-8" standalone="no"?>
<!DOCTYPE svg PUBLIC "-//W3C//DTD SVG 1.1//EN"
 "http://www.w3.org/Graphics/SVG/1.1/DTD/svg11.dtd">
<!-- Generated by graphviz version 2.47.0 (20210316.0004)
 -->
<!-- Title: dependencies Pages: 1 -->
<svg width="1405pt" height="284pt"
 viewBox="0.00 0.00 1405.00 284.00" xmlns="http://www.w3.org/2000/svg" xmlns:xlink="http://www.w3.org/1999/xlink">
<g id="graph0" class="graph" transform="scale(1 1) rotate(0) translate(4 280)">
<title>dependencies</title>
<polygon fill="white" stroke="transparent" points="-4,4 -4,-280 1401,-280 1401,4 -4,4"/>
<text text-anchor="start" x="677.51" y="-42.4" font-family="Times-12" font-weight="bold" font-size="14.00">Legend</text>
<polygon fill="#ffffb3" stroke="transparent" points="464.5,-10 464.5,-30 484.5,-30 484.5,-10 464.5,-10"/>
<text text-anchor="start" x="488.13" y="-15.4" font-family="Times-12" font-size="14.00"> &#160;Declarations</text>
<polygon fill="#8dd3c7" stroke="transparent" points="577.5,-10 577.5,-30 597.5,-30 597.5,-10 577.5,-10"/>
<text text-anchor="start" x="601.23" y="-15.4" font-family="Times-12" font-size="14.00"> &#160;Module</text>
<polygon fill="#80b1d3" stroke="transparent" points="663.5,-10 663.5,-30 683.5,-30 683.5,-10 663.5,-10"/>
<text text-anchor="start" x="687.28" y="-15.4" font-family="Times-12" font-size="14.00"> &#160;Bootstrap</text>
<polygon fill="#fdb462" stroke="transparent" points="760.5,-10 760.5,-30 780.5,-30 780.5,-10 760.5,-10"/>
<text text-anchor="start" x="784.17" y="-15.4" font-family="Times-12" font-size="14.00"> &#160;Providers</text>
<polygon fill="#fb8072" stroke="transparent" points="856.5,-10 856.5,-30 876.5,-30 876.5,-10 856.5,-10"/>
<text text-anchor="start" x="880.23" y="-15.4" font-family="Times-12" font-size="14.00"> &#160;Exports</text>
<g id="clust1" class="cluster">
<title>cluster_LayoutModule</title>
<polygon fill="none" stroke="black" stroke-dasharray="1,5" points="8,-70 8,-268 1389,-268 1389,-70 8,-70"/>
</g>
<g id="clust12" class="cluster">
<title>cluster_LayoutModule_providers</title>
<polygon fill="none" stroke="black" points="1219,-78 1219,-130 1381,-130 1381,-78 1219,-78"/>
</g>
<g id="clust9" class="cluster">
<title>cluster_LayoutModule_imports</title>
<polygon fill="none" stroke="black" points="1089,-78 1089,-130 1211,-130 1211,-78 1089,-78"/>
</g>
<g id="clust10" class="cluster">
<title>cluster_LayoutModule_exports</title>
<polygon fill="none" stroke="black" points="149,-208 149,-260 1236,-260 1236,-208 149,-208"/>
</g>
<g id="clust2" class="cluster">
<title>cluster_LayoutModule_declarations</title>
<polygon fill="none" stroke="black" points="16,-78 16,-130 1081,-130 1081,-78 16,-78"/>
</g>
<!-- AddButtonComponent -->
<g id="node1" class="node">
<title>AddButtonComponent</title>
<polygon fill="#ffffb3" stroke="black" points="1072.56,-122 929.44,-122 929.44,-86 1072.56,-86 1072.56,-122"/>
<text text-anchor="middle" x="1001" y="-99.8" font-family="Times,serif" font-size="14.00">AddButtonComponent</text>
</g>
<!-- LayoutModule -->
<g id="node7" class="node">
<title>LayoutModule</title>
<polygon fill="#8dd3c7" stroke="black" points="750.71,-187 747.71,-191 726.71,-191 723.71,-187 651.29,-187 651.29,-151 750.71,-151 750.71,-187"/>
<text text-anchor="middle" x="701" y="-164.8" font-family="Times,serif" font-size="14.00">LayoutModule</text>
</g>
<!-- AddButtonComponent&#45;&gt;LayoutModule -->
<g id="edge1" class="edge">
<title>AddButtonComponent&#45;&gt;LayoutModule</title>
<path fill="none" stroke="black" d="M995.82,-122.24C995.82,-137.57 995.82,-157 995.82,-157 995.82,-157 760.68,-157 760.68,-157"/>
<polygon fill="black" stroke="black" points="760.68,-153.5 750.68,-157 760.68,-160.5 760.68,-153.5"/>
</g>
<!-- ConfirmModalComponent -->
<g id="node2" class="node">
<title>ConfirmModalComponent</title>
<polygon fill="#ffffb3" stroke="black" points="911.82,-122 746.18,-122 746.18,-86 911.82,-86 911.82,-122"/>
<text text-anchor="middle" x="829" y="-99.8" font-family="Times,serif" font-size="14.00">ConfirmModalComponent</text>
</g>
<!-- ConfirmModalComponent&#45;&gt;LayoutModule -->
<g id="edge2" class="edge">
<title>ConfirmModalComponent&#45;&gt;LayoutModule</title>
<path fill="none" stroke="black" d="M746.02,-104C740.59,-104 737.22,-104 737.22,-104 737.22,-104 737.22,-140.89 737.22,-140.89"/>
<polygon fill="black" stroke="black" points="733.72,-140.89 737.22,-150.89 740.72,-140.89 733.72,-140.89"/>
</g>
<!-- EditionLayoutComponent -->
<g id="node3" class="node">
<title>EditionLayoutComponent</title>
<polygon fill="#ffffb3" stroke="black" points="728.21,-122 565.79,-122 565.79,-86 728.21,-86 728.21,-122"/>
<text text-anchor="middle" x="647" y="-99.8" font-family="Times,serif" font-size="14.00">EditionLayoutComponent</text>
</g>
<!-- EditionLayoutComponent&#45;&gt;LayoutModule -->
<g id="edge3" class="edge">
<title>EditionLayoutComponent&#45;&gt;LayoutModule</title>
<path fill="none" stroke="black" d="M689.75,-122.11C689.75,-122.11 689.75,-140.99 689.75,-140.99"/>
<polygon fill="black" stroke="black" points="686.25,-140.99 689.75,-150.99 693.25,-140.99 686.25,-140.99"/>
</g>
<!-- LayoutHeaderComponent -->
<g id="node4" class="node">
<title>LayoutHeaderComponent</title>
<polygon fill="#ffffb3" stroke="black" points="547.9,-122 386.1,-122 386.1,-86 547.9,-86 547.9,-122"/>
<text text-anchor="middle" x="467" y="-99.8" font-family="Times,serif" font-size="14.00">LayoutHeaderComponent</text>
</g>
<!-- LayoutHeaderComponent&#45;&gt;LayoutModule -->
<g id="edge4" class="edge">
<title>LayoutHeaderComponent&#45;&gt;LayoutModule</title>
<path fill="none" stroke="black" d="M537.62,-122.24C537.62,-137.57 537.62,-157 537.62,-157 537.62,-157 641.09,-157 641.09,-157"/>
<polygon fill="black" stroke="black" points="641.09,-160.5 651.09,-157 641.09,-153.5 641.09,-160.5"/>
</g>
<!-- ListingLayoutComponent -->
<g id="node5" class="node">
<title>ListingLayoutComponent</title>
<polygon fill="#ffffb3" stroke="black" points="368.16,-122 207.84,-122 207.84,-86 368.16,-86 368.16,-122"/>
<text text-anchor="middle" x="288" y="-99.8" font-family="Times,serif" font-size="14.00">ListingLayoutComponent</text>
</g>
<!-- ListingLayoutComponent&#45;&gt;LayoutModule -->
<g id="edge5" class="edge">
<title>ListingLayoutComponent&#45;&gt;LayoutModule</title>
<path fill="none" stroke="black" d="M356.62,-122.02C356.62,-139.37 356.62,-163 356.62,-163 356.62,-163 641.29,-163 641.29,-163"/>
<polygon fill="black" stroke="black" points="641.29,-166.5 651.29,-163 641.29,-159.5 641.29,-166.5"/>
</g>
<!-- RemoveButtonComponent -->
<g id="node6" class="node">
<title>RemoveButtonComponent</title>
<polygon fill="#ffffb3" stroke="black" points="190.11,-122 23.89,-122 23.89,-86 190.11,-86 190.11,-122"/>
<text text-anchor="middle" x="107" y="-99.8" font-family="Times,serif" font-size="14.00">RemoveButtonComponent</text>
</g>
<!-- RemoveButtonComponent&#45;&gt;LayoutModule -->
<g id="edge6" class="edge">
<title>RemoveButtonComponent&#45;&gt;LayoutModule</title>
<path fill="none" stroke="black" d="M173.62,-122.11C173.62,-141.34 173.62,-169 173.62,-169 173.62,-169 641.39,-169 641.39,-169"/>
<polygon fill="black" stroke="black" points="641.39,-172.5 651.39,-169 641.39,-165.5 641.39,-172.5"/>
</g>
<!-- AddButtonComponent  -->
<g id="node9" class="node">
<title>AddButtonComponent </title>
<polygon fill="#fb8072" stroke="black" points="1227.56,-252 1080.44,-252 1080.44,-216 1227.56,-216 1227.56,-252"/>
<text text-anchor="middle" x="1154" y="-229.8" font-family="Times,serif" font-size="14.00">AddButtonComponent </text>
</g>
<!-- LayoutModule&#45;&gt;AddButtonComponent  -->
<g id="edge8" class="edge">
<title>LayoutModule&#45;&gt;AddButtonComponent </title>
<path fill="none" stroke="black" stroke-dasharray="5,2" d="M750.86,-175C855.52,-175 1088.49,-175 1088.49,-175 1088.49,-175 1088.49,-205.98 1088.49,-205.98"/>
<polygon fill="black" stroke="black" points="1084.99,-205.98 1088.49,-215.98 1091.99,-205.98 1084.99,-205.98"/>
</g>
<!-- ConfirmModalComponent  -->
<g id="node10" class="node">
<title>ConfirmModalComponent </title>
<polygon fill="#fb8072" stroke="black" points="1062.32,-252 893.68,-252 893.68,-216 1062.32,-216 1062.32,-252"/>
<text text-anchor="middle" x="978" y="-229.8" font-family="Times,serif" font-size="14.00">ConfirmModalComponent </text>
</g>
<!-- LayoutModule&#45;&gt;ConfirmModalComponent  -->
<g id="edge9" class="edge">
<title>LayoutModule&#45;&gt;ConfirmModalComponent </title>
<path fill="none" stroke="black" stroke-dasharray="5,2" d="M750.84,-181C810.55,-181 902.62,-181 902.62,-181 902.62,-181 902.62,-205.76 902.62,-205.76"/>
<polygon fill="black" stroke="black" points="899.13,-205.76 902.62,-215.76 906.13,-205.76 899.13,-205.76"/>
</g>
<!-- EditionLayoutComponent  -->
<g id="node11" class="node">
<title>EditionLayoutComponent </title>
<polygon fill="#fb8072" stroke="black" points="875.71,-252 710.29,-252 710.29,-216 875.71,-216 875.71,-252"/>
<text text-anchor="middle" x="793" y="-229.8" font-family="Times,serif" font-size="14.00">EditionLayoutComponent </text>
</g>
<!-- LayoutModule&#45;&gt;EditionLayoutComponent  -->
<g id="edge10" class="edge">
<title>LayoutModule&#45;&gt;EditionLayoutComponent </title>
<path fill="none" stroke="black" stroke-dasharray="5,2" d="M730.37,-187.11C730.37,-187.11 730.37,-205.99 730.37,-205.99"/>
<polygon fill="black" stroke="black" points="726.87,-205.99 730.37,-215.99 733.87,-205.99 726.87,-205.99"/>
</g>
<!-- LayoutHeaderComponent  -->
<g id="node12" class="node">
<title>LayoutHeaderComponent </title>
<polygon fill="#fb8072" stroke="black" points="692.4,-252 527.6,-252 527.6,-216 692.4,-216 692.4,-252"/>
<text text-anchor="middle" x="610" y="-229.8" font-family="Times,serif" font-size="14.00">LayoutHeaderComponent </text>
</g>
<!-- LayoutModule&#45;&gt;LayoutHeaderComponent  -->
<g id="edge11" class="edge">
<title>LayoutModule&#45;&gt;LayoutHeaderComponent </title>
<path fill="none" stroke="black" stroke-dasharray="5,2" d="M671.92,-187.11C671.92,-187.11 671.92,-205.99 671.92,-205.99"/>
<polygon fill="black" stroke="black" points="668.42,-205.99 671.92,-215.99 675.42,-205.99 668.42,-205.99"/>
</g>
<!-- ListingLayoutComponent  -->
<g id="node13" class="node">
<title>ListingLayoutComponent </title>
<polygon fill="#fb8072" stroke="black" points="509.16,-252 344.84,-252 344.84,-216 509.16,-216 509.16,-252"/>
<text text-anchor="middle" x="427" y="-229.8" font-family="Times,serif" font-size="14.00">ListingLayoutComponent </text>
</g>
<!-- LayoutModule&#45;&gt;ListingLayoutComponent  -->
<g id="edge12" class="edge">
<title>LayoutModule&#45;&gt;ListingLayoutComponent </title>
<path fill="none" stroke="black" stroke-dasharray="5,2" d="M651.26,-181C577.49,-181 447.69,-181 447.69,-181 447.69,-181 447.69,-205.76 447.69,-205.76"/>
<polygon fill="black" stroke="black" points="444.19,-205.76 447.69,-215.76 451.19,-205.76 444.19,-205.76"/>
</g>
<!-- RemoveButtonComponent  -->
<g id="node14" class="node">
<title>RemoveButtonComponent </title>
<polygon fill="#fb8072" stroke="black" points="326.61,-252 157.39,-252 157.39,-216 326.61,-216 326.61,-252"/>
<text text-anchor="middle" x="242" y="-229.8" font-family="Times,serif" font-size="14.00">RemoveButtonComponent </text>
</g>
<!-- LayoutModule&#45;&gt;RemoveButtonComponent  -->
<g id="edge13" class="edge">
<title>LayoutModule&#45;&gt;RemoveButtonComponent </title>
<path fill="none" stroke="black" stroke-dasharray="5,2" d="M651.24,-175C537.31,-175 267.24,-175 267.24,-175 267.24,-175 267.24,-205.98 267.24,-205.98"/>
<polygon fill="black" stroke="black" points="263.74,-205.98 267.24,-215.98 270.74,-205.98 263.74,-205.98"/>
</g>
<!-- MaterialModule -->
<g id="node8" class="node">
<title>MaterialModule</title>
<polygon fill="#8dd3c7" stroke="black" points="1203.47,-122 1200.47,-126 1179.47,-126 1176.47,-122 1096.53,-122 1096.53,-86 1203.47,-86 1203.47,-122"/>
<text text-anchor="middle" x="1150" y="-99.8" font-family="Times,serif" font-size="14.00">MaterialModule</text>
</g>
<!-- MaterialModule&#45;&gt;LayoutModule -->
<g id="edge7" class="edge">
<title>MaterialModule&#45;&gt;LayoutModule</title>
<path fill="none" stroke="black" d="M1150,-122.02C1150,-139.37 1150,-163 1150,-163 1150,-163 760.77,-163 760.77,-163"/>
<polygon fill="black" stroke="black" points="760.77,-159.5 750.77,-163 760.77,-166.5 760.77,-159.5"/>
</g>
<!-- ConfirmService -->
<g id="node15" class="node">
<title>ConfirmService</title>
<ellipse fill="#fdb462" stroke="black" cx="1300" cy="-104" rx="72.93" ry="18"/>
<text text-anchor="middle" x="1300" y="-99.8" font-family="Times,serif" font-size="14.00">ConfirmService</text>
</g>
<!-- ConfirmService&#45;&gt;LayoutModule -->
<g id="edge14" class="edge">
<title>ConfirmService&#45;&gt;LayoutModule</title>
<path fill="none" stroke="black" d="M1300.12,-122.11C1300.12,-141.34 1300.12,-169 1300.12,-169 1300.12,-169 760.79,-169 760.79,-169"/>
<polygon fill="black" stroke="black" points="760.79,-165.5 750.79,-169 760.79,-172.5 760.79,-165.5"/>
</g>
</g>
</svg>
