<?xml version="1.0" encoding="UTF-8" standalone="no"?>
<!DOCTYPE svg PUBLIC "-//W3C//DTD SVG 1.1//EN"
 "http://www.w3.org/Graphics/SVG/1.1/DTD/svg11.dtd">
<!-- Generated by graphviz version 2.47.0 (20210316.0004)
 -->
<!-- Title: dependencies Pages: 1 -->
<svg width="653pt" height="284pt"
 viewBox="0.00 0.00 653.00 284.00" xmlns="http://www.w3.org/2000/svg" xmlns:xlink="http://www.w3.org/1999/xlink">
<g id="graph0" class="graph" transform="scale(1 1) rotate(0) translate(4 280)">
<title>dependencies</title>
<polygon fill="white" stroke="transparent" points="-4,4 -4,-280 649,-280 649,4 -4,4"/>
<text text-anchor="start" x="301.51" y="-42.4" font-family="Times-12" font-weight="bold" font-size="14.00">Legend</text>
<polygon fill="#ffffb3" stroke="transparent" points="88.5,-10 88.5,-30 108.5,-30 108.5,-10 88.5,-10"/>
<text text-anchor="start" x="112.13" y="-15.4" font-family="Times-12" font-size="14.00"> &#160;Declarations</text>
<polygon fill="#8dd3c7" stroke="transparent" points="201.5,-10 201.5,-30 221.5,-30 221.5,-10 201.5,-10"/>
<text text-anchor="start" x="225.23" y="-15.4" font-family="Times-12" font-size="14.00"> &#160;Module</text>
<polygon fill="#80b1d3" stroke="transparent" points="287.5,-10 287.5,-30 307.5,-30 307.5,-10 287.5,-10"/>
<text text-anchor="start" x="311.28" y="-15.4" font-family="Times-12" font-size="14.00"> &#160;Bootstrap</text>
<polygon fill="#fdb462" stroke="transparent" points="384.5,-10 384.5,-30 404.5,-30 404.5,-10 384.5,-10"/>
<text text-anchor="start" x="408.17" y="-15.4" font-family="Times-12" font-size="14.00"> &#160;Providers</text>
<polygon fill="#fb8072" stroke="transparent" points="480.5,-10 480.5,-30 500.5,-30 500.5,-10 480.5,-10"/>
<text text-anchor="start" x="504.23" y="-15.4" font-family="Times-12" font-size="14.00"> &#160;Exports</text>
<g id="clust1" class="cluster">
<title>cluster_ListingLayoutModule</title>
<polygon fill="none" stroke="black" stroke-dasharray="1,5" points="8,-70 8,-268 637,-268 637,-70 8,-70"/>
</g>
<g id="clust6" class="cluster">
<title>cluster_ListingLayoutModule_exports</title>
<polygon fill="none" stroke="black" points="146,-208 146,-260 492,-260 492,-208 146,-208"/>
</g>
<g id="clust5" class="cluster">
<title>cluster_ListingLayoutModule_imports</title>
<polygon fill="none" stroke="black" points="362,-78 362,-130 629,-130 629,-78 362,-78"/>
</g>
<g id="clust2" class="cluster">
<title>cluster_ListingLayoutModule_declarations</title>
<polygon fill="none" stroke="black" points="16,-78 16,-130 354,-130 354,-78 16,-78"/>
</g>
<!-- AddButtonComponent -->
<g id="node1" class="node">
<title>AddButtonComponent</title>
<polygon fill="#ffffb3" stroke="black" points="345.56,-122 202.44,-122 202.44,-86 345.56,-86 345.56,-122"/>
<text text-anchor="middle" x="274" y="-99.8" font-family="Times,serif" font-size="14.00">AddButtonComponent</text>
</g>
<!-- ListingLayoutModule -->
<g id="node3" class="node">
<title>ListingLayoutModule</title>
<polygon fill="#8dd3c7" stroke="black" points="392.38,-187 389.38,-191 368.38,-191 365.38,-187 253.62,-187 253.62,-151 392.38,-151 392.38,-187"/>
<text text-anchor="middle" x="323" y="-164.8" font-family="Times,serif" font-size="14.00">ListingLayoutModule</text>
</g>
<!-- AddButtonComponent&#45;&gt;ListingLayoutModule -->
<g id="edge1" class="edge">
<title>AddButtonComponent&#45;&gt;ListingLayoutModule</title>
<path fill="none" stroke="black" d="M299.67,-122.11C299.67,-122.11 299.67,-140.99 299.67,-140.99"/>
<polygon fill="black" stroke="black" points="296.17,-140.99 299.67,-150.99 303.17,-140.99 296.17,-140.99"/>
</g>
<!-- ListingLayoutComponent -->
<g id="node2" class="node">
<title>ListingLayoutComponent</title>
<polygon fill="#ffffb3" stroke="black" points="184.16,-122 23.84,-122 23.84,-86 184.16,-86 184.16,-122"/>
<text text-anchor="middle" x="104" y="-99.8" font-family="Times,serif" font-size="14.00">ListingLayoutComponent</text>
</g>
<!-- ListingLayoutComponent&#45;&gt;ListingLayoutModule -->
<g id="edge2" class="edge">
<title>ListingLayoutComponent&#45;&gt;ListingLayoutModule</title>
<path fill="none" stroke="black" d="M169.12,-122.11C169.12,-141.34 169.12,-169 169.12,-169 169.12,-169 243.27,-169 243.27,-169"/>
<polygon fill="black" stroke="black" points="243.27,-172.5 253.27,-169 243.27,-165.5 243.27,-172.5"/>
</g>
<!-- AddButtonComponent  -->
<g id="node6" class="node">
<title>AddButtonComponent </title>
<polygon fill="#fb8072" stroke="black" points="483.56,-252 336.44,-252 336.44,-216 483.56,-216 483.56,-252"/>
<text text-anchor="middle" x="410" y="-229.8" font-family="Times,serif" font-size="14.00">AddButtonComponent </text>
</g>
<!-- ListingLayoutModule&#45;&gt;AddButtonComponent  -->
<g id="edge5" class="edge">
<title>ListingLayoutModule&#45;&gt;AddButtonComponent </title>
<path fill="none" stroke="black" stroke-dasharray="5,2" d="M364.45,-187.11C364.45,-187.11 364.45,-205.99 364.45,-205.99"/>
<polygon fill="black" stroke="black" points="360.96,-205.99 364.45,-215.99 367.96,-205.99 360.96,-205.99"/>
</g>
<!-- ListingLayoutComponent  -->
<g id="node7" class="node">
<title>ListingLayoutComponent </title>
<polygon fill="#fb8072" stroke="black" points="318.16,-252 153.84,-252 153.84,-216 318.16,-216 318.16,-252"/>
<text text-anchor="middle" x="236" y="-229.8" font-family="Times,serif" font-size="14.00">ListingLayoutComponent </text>
</g>
<!-- ListingLayoutModule&#45;&gt;ListingLayoutComponent  -->
<g id="edge6" class="edge">
<title>ListingLayoutModule&#45;&gt;ListingLayoutComponent </title>
<path fill="none" stroke="black" stroke-dasharray="5,2" d="M285.82,-187.11C285.82,-187.11 285.82,-205.99 285.82,-205.99"/>
<polygon fill="black" stroke="black" points="282.32,-205.99 285.82,-215.99 289.32,-205.99 282.32,-205.99"/>
</g>
<!-- BaseLayoutModule -->
<g id="node4" class="node">
<title>BaseLayoutModule</title>
<polygon fill="#8dd3c7" stroke="black" points="621.42,-122 618.42,-126 597.42,-126 594.42,-122 494.58,-122 494.58,-86 621.42,-86 621.42,-122"/>
<text text-anchor="middle" x="558" y="-99.8" font-family="Times,serif" font-size="14.00">BaseLayoutModule</text>
</g>
<!-- BaseLayoutModule&#45;&gt;ListingLayoutModule -->
<g id="edge3" class="edge">
<title>BaseLayoutModule&#45;&gt;ListingLayoutModule</title>
<path fill="none" stroke="black" d="M558,-122.11C558,-141.34 558,-169 558,-169 558,-169 402.55,-169 402.55,-169"/>
<polygon fill="black" stroke="black" points="402.55,-165.5 392.55,-169 402.55,-172.5 402.55,-165.5"/>
</g>
<!-- MaterialModule -->
<g id="node5" class="node">
<title>MaterialModule</title>
<polygon fill="#8dd3c7" stroke="black" points="476.47,-122 473.47,-126 452.47,-126 449.47,-122 369.53,-122 369.53,-86 476.47,-86 476.47,-122"/>
<text text-anchor="middle" x="423" y="-99.8" font-family="Times,serif" font-size="14.00">MaterialModule</text>
</g>
<!-- MaterialModule&#45;&gt;ListingLayoutModule -->
<g id="edge4" class="edge">
<title>MaterialModule&#45;&gt;ListingLayoutModule</title>
<path fill="none" stroke="black" d="M380.98,-122.11C380.98,-122.11 380.98,-140.99 380.98,-140.99"/>
<polygon fill="black" stroke="black" points="377.48,-140.99 380.98,-150.99 384.48,-140.99 377.48,-140.99"/>
</g>
</g>
</svg>
