<?xml version="1.0" encoding="UTF-8" standalone="no"?>
<!DOCTYPE svg PUBLIC "-//W3C//DTD SVG 1.1//EN"
 "http://www.w3.org/Graphics/SVG/1.1/DTD/svg11.dtd">
<!-- Generated by graphviz version 2.47.0 (20210316.0004)
 -->
<!-- Title: dependencies Pages: 1 -->
<svg width="1316pt" height="284pt"
 viewBox="0.00 0.00 1316.00 284.00" xmlns="http://www.w3.org/2000/svg" xmlns:xlink="http://www.w3.org/1999/xlink">
<g id="graph0" class="graph" transform="scale(1 1) rotate(0) translate(4 280)">
<title>dependencies</title>
<polygon fill="white" stroke="transparent" points="-4,4 -4,-280 1312,-280 1312,4 -4,4"/>
<text text-anchor="start" x="633.01" y="-42.4" font-family="Times-12" font-weight="bold" font-size="14.00">Legend</text>
<polygon fill="#ffffb3" stroke="transparent" points="420,-10 420,-30 440,-30 440,-10 420,-10"/>
<text text-anchor="start" x="443.63" y="-15.4" font-family="Times-12" font-size="14.00"> &#160;Declarations</text>
<polygon fill="#8dd3c7" stroke="transparent" points="533,-10 533,-30 553,-30 553,-10 533,-10"/>
<text text-anchor="start" x="556.73" y="-15.4" font-family="Times-12" font-size="14.00"> &#160;Module</text>
<polygon fill="#80b1d3" stroke="transparent" points="619,-10 619,-30 639,-30 639,-10 619,-10"/>
<text text-anchor="start" x="642.78" y="-15.4" font-family="Times-12" font-size="14.00"> &#160;Bootstrap</text>
<polygon fill="#fdb462" stroke="transparent" points="716,-10 716,-30 736,-30 736,-10 716,-10"/>
<text text-anchor="start" x="739.67" y="-15.4" font-family="Times-12" font-size="14.00"> &#160;Providers</text>
<polygon fill="#fb8072" stroke="transparent" points="812,-10 812,-30 832,-30 832,-10 812,-10"/>
<text text-anchor="start" x="835.73" y="-15.4" font-family="Times-12" font-size="14.00"> &#160;Exports</text>
<g id="clust1" class="cluster">
<title>cluster_EditionLayoutModule</title>
<polygon fill="none" stroke="black" stroke-dasharray="1,5" points="8,-70 8,-268 1300,-268 1300,-70 8,-70"/>
</g>
<g id="clust9" class="cluster">
<title>cluster_EditionLayoutModule_exports</title>
<polygon fill="none" stroke="black" points="278,-208 278,-260 1173,-260 1173,-208 278,-208"/>
</g>
<g id="clust8" class="cluster">
<title>cluster_EditionLayoutModule_imports</title>
<polygon fill="none" stroke="black" points="900,-78 900,-130 1292,-130 1292,-78 900,-78"/>
</g>
<g id="clust2" class="cluster">
<title>cluster_EditionLayoutModule_declarations</title>
<polygon fill="none" stroke="black" points="16,-78 16,-130 892,-130 892,-78 16,-78"/>
</g>
<!-- EditionLayoutComponent -->
<g id="node1" class="node">
<title>EditionLayoutComponent</title>
<polygon fill="#ffffb3" stroke="black" points="884.21,-122 721.79,-122 721.79,-86 884.21,-86 884.21,-122"/>
<text text-anchor="middle" x="803" y="-99.8" font-family="Times,serif" font-size="14.00">EditionLayoutComponent</text>
</g>
<!-- EditionLayoutModule -->
<g id="node6" class="node">
<title>EditionLayoutModule</title>
<polygon fill="#8dd3c7" stroke="black" points="782.43,-187 779.43,-191 758.43,-191 755.43,-187 641.57,-187 641.57,-151 782.43,-151 782.43,-187"/>
<text text-anchor="middle" x="712" y="-164.8" font-family="Times,serif" font-size="14.00">EditionLayoutModule</text>
</g>
<!-- EditionLayoutComponent&#45;&gt;EditionLayoutModule -->
<g id="edge1" class="edge">
<title>EditionLayoutComponent&#45;&gt;EditionLayoutModule</title>
<path fill="none" stroke="black" d="M752.05,-122.11C752.05,-122.11 752.05,-140.99 752.05,-140.99"/>
<polygon fill="black" stroke="black" points="748.55,-140.99 752.05,-150.99 755.55,-140.99 748.55,-140.99"/>
</g>
<!-- RemoveButtonComponent -->
<g id="node2" class="node">
<title>RemoveButtonComponent</title>
<polygon fill="#ffffb3" stroke="black" points="704.11,-122 537.89,-122 537.89,-86 704.11,-86 704.11,-122"/>
<text text-anchor="middle" x="621" y="-99.8" font-family="Times,serif" font-size="14.00">RemoveButtonComponent</text>
</g>
<!-- RemoveButtonComponent&#45;&gt;EditionLayoutModule -->
<g id="edge2" class="edge">
<title>RemoveButtonComponent&#45;&gt;EditionLayoutModule</title>
<path fill="none" stroke="black" d="M672.92,-122.11C672.92,-122.11 672.92,-140.99 672.92,-140.99"/>
<polygon fill="black" stroke="black" points="669.42,-140.99 672.92,-150.99 676.42,-140.99 669.42,-140.99"/>
</g>
<!-- RemoveHandlerDirective -->
<g id="node3" class="node">
<title>RemoveHandlerDirective</title>
<polygon fill="#ffffb3" stroke="black" points="519.83,-122 360.17,-122 360.17,-86 519.83,-86 519.83,-122"/>
<text text-anchor="middle" x="440" y="-99.8" font-family="Times,serif" font-size="14.00">RemoveHandlerDirective</text>
</g>
<!-- RemoveHandlerDirective&#45;&gt;EditionLayoutModule -->
<g id="edge3" class="edge">
<title>RemoveHandlerDirective&#45;&gt;EditionLayoutModule</title>
<path fill="none" stroke="black" d="M493.99,-122.24C493.99,-137.57 493.99,-157 493.99,-157 493.99,-157 631.52,-157 631.52,-157"/>
<polygon fill="black" stroke="black" points="631.52,-160.5 641.52,-157 631.52,-153.5 631.52,-160.5"/>
</g>
<!-- SaveHandlerDirective -->
<g id="node4" class="node">
<title>SaveHandlerDirective</title>
<polygon fill="#ffffb3" stroke="black" points="342.38,-122 201.62,-122 201.62,-86 342.38,-86 342.38,-122"/>
<text text-anchor="middle" x="272" y="-99.8" font-family="Times,serif" font-size="14.00">SaveHandlerDirective</text>
</g>
<!-- SaveHandlerDirective&#45;&gt;EditionLayoutModule -->
<g id="edge4" class="edge">
<title>SaveHandlerDirective&#45;&gt;EditionLayoutModule</title>
<path fill="none" stroke="black" d="M314.07,-122.02C314.07,-139.37 314.07,-163 314.07,-163 314.07,-163 631.77,-163 631.77,-163"/>
<polygon fill="black" stroke="black" points="631.77,-166.5 641.77,-163 631.77,-159.5 631.77,-166.5"/>
</g>
<!-- UseCancellationDirective -->
<g id="node5" class="node">
<title>UseCancellationDirective</title>
<polygon fill="#ffffb3" stroke="black" points="184.11,-122 23.89,-122 23.89,-86 184.11,-86 184.11,-122"/>
<text text-anchor="middle" x="104" y="-99.8" font-family="Times,serif" font-size="14.00">UseCancellationDirective</text>
</g>
<!-- UseCancellationDirective&#45;&gt;EditionLayoutModule -->
<g id="edge5" class="edge">
<title>UseCancellationDirective&#45;&gt;EditionLayoutModule</title>
<path fill="none" stroke="black" d="M104,-122.11C104,-141.34 104,-169 104,-169 104,-169 631.66,-169 631.66,-169"/>
<polygon fill="black" stroke="black" points="631.66,-172.5 641.66,-169 631.66,-165.5 631.66,-172.5"/>
</g>
<!-- EditionLayoutComponent  -->
<g id="node10" class="node">
<title>EditionLayoutComponent </title>
<polygon fill="#fb8072" stroke="black" points="1164.71,-252 999.29,-252 999.29,-216 1164.71,-216 1164.71,-252"/>
<text text-anchor="middle" x="1082" y="-229.8" font-family="Times,serif" font-size="14.00">EditionLayoutComponent </text>
</g>
<!-- EditionLayoutModule&#45;&gt;EditionLayoutComponent  -->
<g id="edge9" class="edge">
<title>EditionLayoutModule&#45;&gt;EditionLayoutComponent </title>
<path fill="none" stroke="black" stroke-dasharray="5,2" d="M782.24,-175C869.44,-175 1006.81,-175 1006.81,-175 1006.81,-175 1006.81,-205.98 1006.81,-205.98"/>
<polygon fill="black" stroke="black" points="1003.31,-205.98 1006.81,-215.98 1010.31,-205.98 1003.31,-205.98"/>
</g>
<!-- RemoveButtonComponent  -->
<g id="node11" class="node">
<title>RemoveButtonComponent </title>
<polygon fill="#fb8072" stroke="black" points="980.61,-252 811.39,-252 811.39,-216 980.61,-216 980.61,-252"/>
<text text-anchor="middle" x="896" y="-229.8" font-family="Times,serif" font-size="14.00">RemoveButtonComponent </text>
</g>
<!-- EditionLayoutModule&#45;&gt;RemoveButtonComponent  -->
<g id="edge10" class="edge">
<title>EditionLayoutModule&#45;&gt;RemoveButtonComponent </title>
<path fill="none" stroke="black" stroke-dasharray="5,2" d="M782.61,-181C815.57,-181 847.65,-181 847.65,-181 847.65,-181 847.65,-205.76 847.65,-205.76"/>
<polygon fill="black" stroke="black" points="844.15,-205.76 847.65,-215.76 851.15,-205.76 844.15,-205.76"/>
</g>
<!-- RemoveHandlerDirective  -->
<g id="node12" class="node">
<title>RemoveHandlerDirective </title>
<polygon fill="#fb8072" stroke="black" points="793.83,-252 630.17,-252 630.17,-216 793.83,-216 793.83,-252"/>
<text text-anchor="middle" x="712" y="-229.8" font-family="Times,serif" font-size="14.00">RemoveHandlerDirective </text>
</g>
<!-- EditionLayoutModule&#45;&gt;RemoveHandlerDirective  -->
<g id="edge11" class="edge">
<title>EditionLayoutModule&#45;&gt;RemoveHandlerDirective </title>
<path fill="none" stroke="black" stroke-dasharray="5,2" d="M712,-187.11C712,-187.11 712,-205.99 712,-205.99"/>
<polygon fill="black" stroke="black" points="708.5,-205.99 712,-215.99 715.5,-205.99 708.5,-205.99"/>
</g>
<!-- SaveHandlerDirective  -->
<g id="node13" class="node">
<title>SaveHandlerDirective </title>
<polygon fill="#fb8072" stroke="black" points="611.88,-252 468.12,-252 468.12,-216 611.88,-216 611.88,-252"/>
<text text-anchor="middle" x="540" y="-229.8" font-family="Times,serif" font-size="14.00">SaveHandlerDirective </text>
</g>
<!-- EditionLayoutModule&#45;&gt;SaveHandlerDirective  -->
<g id="edge12" class="edge">
<title>EditionLayoutModule&#45;&gt;SaveHandlerDirective </title>
<path fill="none" stroke="black" stroke-dasharray="5,2" d="M641.46,-181C607.88,-181 574.94,-181 574.94,-181 574.94,-181 574.94,-205.76 574.94,-205.76"/>
<polygon fill="black" stroke="black" points="571.44,-205.76 574.94,-215.76 578.44,-205.76 571.44,-205.76"/>
</g>
<!-- UseCancellationDirective  -->
<g id="node14" class="node">
<title>UseCancellationDirective </title>
<polygon fill="#fb8072" stroke="black" points="450.11,-252 285.89,-252 285.89,-216 450.11,-216 450.11,-252"/>
<text text-anchor="middle" x="368" y="-229.8" font-family="Times,serif" font-size="14.00">UseCancellationDirective </text>
</g>
<!-- EditionLayoutModule&#45;&gt;UseCancellationDirective  -->
<g id="edge13" class="edge">
<title>EditionLayoutModule&#45;&gt;UseCancellationDirective </title>
<path fill="none" stroke="black" stroke-dasharray="5,2" d="M641.58,-175C550.97,-175 405.07,-175 405.07,-175 405.07,-175 405.07,-205.98 405.07,-205.98"/>
<polygon fill="black" stroke="black" points="401.57,-205.98 405.07,-215.98 408.57,-205.98 401.57,-205.98"/>
</g>
<!-- BaseLayoutModule -->
<g id="node7" class="node">
<title>BaseLayoutModule</title>
<polygon fill="#8dd3c7" stroke="black" points="1284.42,-122 1281.42,-126 1260.42,-126 1257.42,-122 1157.58,-122 1157.58,-86 1284.42,-86 1284.42,-122"/>
<text text-anchor="middle" x="1221" y="-99.8" font-family="Times,serif" font-size="14.00">BaseLayoutModule</text>
</g>
<!-- BaseLayoutModule&#45;&gt;EditionLayoutModule -->
<g id="edge6" class="edge">
<title>BaseLayoutModule&#45;&gt;EditionLayoutModule</title>
<path fill="none" stroke="black" d="M1161.32,-122.11C1161.32,-141.34 1161.32,-169 1161.32,-169 1161.32,-169 792.7,-169 792.7,-169"/>
<polygon fill="black" stroke="black" points="792.7,-165.5 782.7,-169 792.7,-172.5 792.7,-165.5"/>
</g>
<!-- ConfirmModule -->
<g id="node8" class="node">
<title>ConfirmModule</title>
<polygon fill="#8dd3c7" stroke="black" points="1139.49,-122 1136.49,-126 1115.49,-126 1112.49,-122 1032.51,-122 1032.51,-86 1139.49,-86 1139.49,-122"/>
<text text-anchor="middle" x="1086" y="-99.8" font-family="Times,serif" font-size="14.00">ConfirmModule</text>
</g>
<!-- ConfirmModule&#45;&gt;EditionLayoutModule -->
<g id="edge7" class="edge">
<title>ConfirmModule&#45;&gt;EditionLayoutModule</title>
<path fill="none" stroke="black" d="M1086,-122.02C1086,-139.37 1086,-163 1086,-163 1086,-163 792.35,-163 792.35,-163"/>
<polygon fill="black" stroke="black" points="792.35,-159.5 782.35,-163 792.35,-166.5 792.35,-159.5"/>
</g>
<!-- MaterialModule -->
<g id="node9" class="node">
<title>MaterialModule</title>
<polygon fill="#8dd3c7" stroke="black" points="1014.47,-122 1011.47,-126 990.47,-126 987.47,-122 907.53,-122 907.53,-86 1014.47,-86 1014.47,-122"/>
<text text-anchor="middle" x="961" y="-99.8" font-family="Times,serif" font-size="14.00">MaterialModule</text>
</g>
<!-- MaterialModule&#45;&gt;EditionLayoutModule -->
<g id="edge8" class="edge">
<title>MaterialModule&#45;&gt;EditionLayoutModule</title>
<path fill="none" stroke="black" d="M944.16,-122.24C944.16,-137.57 944.16,-157 944.16,-157 944.16,-157 792.29,-157 792.29,-157"/>
<polygon fill="black" stroke="black" points="792.29,-153.5 782.29,-157 792.29,-160.5 792.29,-153.5"/>
</g>
</g>
</svg>
