<?xml version="1.0" encoding="UTF-8" standalone="no"?>
<!DOCTYPE svg PUBLIC "-//W3C//DTD SVG 1.1//EN"
 "http://www.w3.org/Graphics/SVG/1.1/DTD/svg11.dtd">
<!-- Generated by graphviz version 2.47.0 (20210316.0004)
 -->
<!-- Title: dependencies Pages: 1 -->
<svg width="522pt" height="211pt"
 viewBox="0.00 0.00 522.00 211.00" xmlns="http://www.w3.org/2000/svg" xmlns:xlink="http://www.w3.org/1999/xlink">
<g id="graph0" class="graph" transform="scale(1 1) rotate(0) translate(4 207)">
<title>dependencies</title>
<polygon fill="white" stroke="transparent" points="-4,4 -4,-207 518,-207 518,4 -4,4"/>
<text text-anchor="start" x="236.01" y="-42.4" font-family="Times-12" font-weight="bold" font-size="14.00">Legend</text>
<polygon fill="#ffffb3" stroke="transparent" points="23,-10 23,-30 43,-30 43,-10 23,-10"/>
<text text-anchor="start" x="46.63" y="-15.4" font-family="Times-12" font-size="14.00"> &#160;Declarations</text>
<polygon fill="#8dd3c7" stroke="transparent" points="136,-10 136,-30 156,-30 156,-10 136,-10"/>
<text text-anchor="start" x="159.73" y="-15.4" font-family="Times-12" font-size="14.00"> &#160;Module</text>
<polygon fill="#80b1d3" stroke="transparent" points="222,-10 222,-30 242,-30 242,-10 222,-10"/>
<text text-anchor="start" x="245.78" y="-15.4" font-family="Times-12" font-size="14.00"> &#160;Bootstrap</text>
<polygon fill="#fdb462" stroke="transparent" points="319,-10 319,-30 339,-30 339,-10 319,-10"/>
<text text-anchor="start" x="342.67" y="-15.4" font-family="Times-12" font-size="14.00"> &#160;Providers</text>
<polygon fill="#fb8072" stroke="transparent" points="415,-10 415,-30 435,-30 435,-10 415,-10"/>
<text text-anchor="start" x="438.73" y="-15.4" font-family="Times-12" font-size="14.00"> &#160;Exports</text>
<g id="clust1" class="cluster">
<title>cluster_ConfirmModule</title>
<polygon fill="none" stroke="black" stroke-dasharray="1,5" points="8,-70 8,-195 506,-195 506,-70 8,-70"/>
</g>
<g id="clust4" class="cluster">
<title>cluster_ConfirmModule_imports</title>
<polygon fill="none" stroke="black" points="376,-78 376,-130 498,-130 498,-78 376,-78"/>
</g>
<g id="clust2" class="cluster">
<title>cluster_ConfirmModule_declarations</title>
<polygon fill="none" stroke="black" points="186,-78 186,-130 368,-130 368,-78 186,-78"/>
</g>
<g id="clust7" class="cluster">
<title>cluster_ConfirmModule_providers</title>
<polygon fill="none" stroke="black" points="16,-78 16,-130 178,-130 178,-78 16,-78"/>
</g>
<!-- ConfirmModalComponent -->
<g id="node1" class="node">
<title>ConfirmModalComponent</title>
<polygon fill="#ffffb3" stroke="black" points="359.82,-122 194.18,-122 194.18,-86 359.82,-86 359.82,-122"/>
<text text-anchor="middle" x="277" y="-99.8" font-family="Times,serif" font-size="14.00">ConfirmModalComponent</text>
</g>
<!-- ConfirmModule -->
<g id="node2" class="node">
<title>ConfirmModule</title>
<polygon fill="#8dd3c7" stroke="black" points="330.49,-187 327.49,-191 306.49,-191 303.49,-187 223.51,-187 223.51,-151 330.49,-151 330.49,-187"/>
<text text-anchor="middle" x="277" y="-164.8" font-family="Times,serif" font-size="14.00">ConfirmModule</text>
</g>
<!-- ConfirmModalComponent&#45;&gt;ConfirmModule -->
<g id="edge1" class="edge">
<title>ConfirmModalComponent&#45;&gt;ConfirmModule</title>
<path fill="none" stroke="black" d="M277,-122.11C277,-122.11 277,-140.99 277,-140.99"/>
<polygon fill="black" stroke="black" points="273.5,-140.99 277,-150.99 280.5,-140.99 273.5,-140.99"/>
</g>
<!-- MaterialModule -->
<g id="node3" class="node">
<title>MaterialModule</title>
<polygon fill="#8dd3c7" stroke="black" points="490.47,-122 487.47,-126 466.47,-126 463.47,-122 383.53,-122 383.53,-86 490.47,-86 490.47,-122"/>
<text text-anchor="middle" x="437" y="-99.8" font-family="Times,serif" font-size="14.00">MaterialModule</text>
</g>
<!-- MaterialModule&#45;&gt;ConfirmModule -->
<g id="edge2" class="edge">
<title>MaterialModule&#45;&gt;ConfirmModule</title>
<path fill="none" stroke="black" d="M437,-122.11C437,-141.34 437,-169 437,-169 437,-169 340.72,-169 340.72,-169"/>
<polygon fill="black" stroke="black" points="340.72,-165.5 330.72,-169 340.72,-172.5 340.72,-165.5"/>
</g>
<!-- ConfirmService -->
<g id="node4" class="node">
<title>ConfirmService</title>
<ellipse fill="#fdb462" stroke="black" cx="97" cy="-104" rx="72.93" ry="18"/>
<text text-anchor="middle" x="97" y="-99.8" font-family="Times,serif" font-size="14.00">ConfirmService</text>
</g>
<!-- ConfirmService&#45;&gt;ConfirmModule -->
<g id="edge3" class="edge">
<title>ConfirmService&#45;&gt;ConfirmModule</title>
<path fill="none" stroke="black" d="M97,-122.11C97,-141.34 97,-169 97,-169 97,-169 213.48,-169 213.48,-169"/>
<polygon fill="black" stroke="black" points="213.48,-172.5 223.48,-169 213.48,-165.5 213.48,-172.5"/>
</g>
</g>
</svg>
