<?xml version="1.0" encoding="UTF-8" standalone="no"?>
<!DOCTYPE svg PUBLIC "-//W3C//DTD SVG 1.1//EN"
 "http://www.w3.org/Graphics/SVG/1.1/DTD/svg11.dtd">
<!-- Generated by graphviz version 2.47.0 (20210316.0004)
 -->
<!-- Title: dependencies Pages: 1 -->
<svg width="2791pt" height="295pt"
 viewBox="0.00 0.00 2791.00 295.00" xmlns="http://www.w3.org/2000/svg" xmlns:xlink="http://www.w3.org/1999/xlink">
<g id="graph0" class="graph" transform="scale(1 1) rotate(0) translate(4 291)">
<title>dependencies</title>
<polygon fill="white" stroke="transparent" points="-4,4 -4,-291 2787,-291 2787,4 -4,4"/>
<text text-anchor="start" x="1370.51" y="-42.4" font-family="Times-12" font-weight="bold" font-size="14.00">Legend</text>
<polygon fill="#ffffb3" stroke="transparent" points="1157.5,-10 1157.5,-30 1177.5,-30 1177.5,-10 1157.5,-10"/>
<text text-anchor="start" x="1181.13" y="-15.4" font-family="Times-12" font-size="14.00"> &#160;Declarations</text>
<polygon fill="#8dd3c7" stroke="transparent" points="1270.5,-10 1270.5,-30 1290.5,-30 1290.5,-10 1270.5,-10"/>
<text text-anchor="start" x="1294.23" y="-15.4" font-family="Times-12" font-size="14.00"> &#160;Module</text>
<polygon fill="#80b1d3" stroke="transparent" points="1356.5,-10 1356.5,-30 1376.5,-30 1376.5,-10 1356.5,-10"/>
<text text-anchor="start" x="1380.28" y="-15.4" font-family="Times-12" font-size="14.00"> &#160;Bootstrap</text>
<polygon fill="#fdb462" stroke="transparent" points="1453.5,-10 1453.5,-30 1473.5,-30 1473.5,-10 1453.5,-10"/>
<text text-anchor="start" x="1477.17" y="-15.4" font-family="Times-12" font-size="14.00"> &#160;Providers</text>
<polygon fill="#fb8072" stroke="transparent" points="1549.5,-10 1549.5,-30 1569.5,-30 1569.5,-10 1549.5,-10"/>
<text text-anchor="start" x="1573.23" y="-15.4" font-family="Times-12" font-size="14.00"> &#160;Exports</text>
<g id="clust1" class="cluster">
<title>cluster_AppModule</title>
<polygon fill="none" stroke="black" stroke-dasharray="1,5" points="8,-70 8,-279 423,-279 423,-70 8,-70"/>
</g>
<g id="clust2" class="cluster">
<title>cluster_AppModule_declarations</title>
<polygon fill="none" stroke="black" points="16,-78 16,-130 138,-130 138,-78 16,-78"/>
</g>
<g id="clust4" class="cluster">
<title>cluster_AppModule_imports</title>
<polygon fill="none" stroke="black" points="146,-78 146,-130 415,-130 415,-78 146,-78"/>
</g>
<g id="clust6" class="cluster">
<title>cluster_AppModule_bootstrap</title>
<polygon fill="none" stroke="black" points="156,-219 156,-271 280,-271 280,-219 156,-219"/>
</g>
<g id="clust14" class="cluster">
<title>cluster_CategoryModule</title>
<polygon fill="none" stroke="black" stroke-dasharray="1,5" points="1265,-146 1265,-271 2283,-271 2283,-146 1265,-146"/>
</g>
<g id="clust15" class="cluster">
<title>cluster_CategoryModule_declarations</title>
<polygon fill="none" stroke="black" points="1571,-154 1571,-206 2275,-206 2275,-154 1571,-154"/>
</g>
<g id="clust20" class="cluster">
<title>cluster_CategoryModule_imports</title>
<polygon fill="none" stroke="black" points="1273,-154 1273,-206 1563,-206 1563,-154 1273,-154"/>
</g>
<g id="clust30" class="cluster">
<title>cluster_ContactModule</title>
<polygon fill="none" stroke="black" stroke-dasharray="1,5" points="559,-146 559,-271 1083,-271 1083,-146 559,-146"/>
</g>
<g id="clust31" class="cluster">
<title>cluster_ContactModule_declarations</title>
<polygon fill="none" stroke="black" points="739,-154 739,-206 1075,-206 1075,-154 739,-154"/>
</g>
<g id="clust34" class="cluster">
<title>cluster_ContactModule_imports</title>
<polygon fill="none" stroke="black" points="567,-154 567,-206 731,-206 731,-154 567,-154"/>
</g>
<g id="clust44" class="cluster">
<title>cluster_LayoutModule</title>
<polygon fill="none" stroke="black" stroke-dasharray="1,5" points="431,-70 431,-138 2775,-138 2775,-70 431,-70"/>
</g>
<g id="clust45" class="cluster">
<title>cluster_LayoutModule_declarations</title>
<polygon fill="none" stroke="black" points="1702,-78 1702,-130 2767,-130 2767,-78 1702,-78"/>
</g>
<g id="clust53" class="cluster">
<title>cluster_LayoutModule_exports</title>
<polygon fill="none" stroke="black" points="609,-78 609,-130 1694,-130 1694,-78 609,-78"/>
</g>
<g id="clust55" class="cluster">
<title>cluster_LayoutModule_providers</title>
<polygon fill="none" stroke="black" points="439,-78 439,-130 601,-130 601,-78 439,-78"/>
</g>
<!-- AppComponent -->
<g id="node1" class="node">
<title>AppComponent</title>
<polygon fill="#ffffb3" stroke="black" points="129.94,-122 24.06,-122 24.06,-86 129.94,-86 129.94,-122"/>
<text text-anchor="middle" x="77" y="-99.8" font-family="Times,serif" font-size="14.00">AppComponent</text>
</g>
<!-- AppModule -->
<g id="node2" class="node">
<title>AppModule</title>
<polygon fill="#8dd3c7" stroke="black" points="259.66,-198 256.66,-202 235.66,-202 232.66,-198 176.34,-198 176.34,-162 259.66,-162 259.66,-198"/>
<text text-anchor="middle" x="218" y="-175.8" font-family="Times,serif" font-size="14.00">AppModule</text>
</g>
<!-- AppComponent&#45;&gt;AppModule -->
<g id="edge1" class="edge">
<title>AppComponent&#45;&gt;AppModule</title>
<path fill="none" stroke="black" d="M77,-122.01C77,-144.49 77,-180 77,-180 77,-180 166.08,-180 166.08,-180"/>
<polygon fill="black" stroke="black" points="166.08,-183.5 176.08,-180 166.08,-176.5 166.08,-183.5"/>
</g>
<!-- AppComponent  -->
<g id="node5" class="node">
<title>AppComponent </title>
<polygon fill="#80b1d3" stroke="black" points="272.44,-263 163.56,-263 163.56,-227 272.44,-227 272.44,-263"/>
<text text-anchor="middle" x="218" y="-240.8" font-family="Times,serif" font-size="14.00">AppComponent </text>
</g>
<!-- AppModule&#45;&gt;AppComponent  -->
<g id="edge4" class="edge">
<title>AppModule&#45;&gt;AppComponent </title>
<path fill="none" stroke="black" stroke-dasharray="1,5" d="M218,-198.11C218,-198.11 218,-216.99 218,-216.99"/>
<polygon fill="black" stroke="black" points="214.5,-216.99 218,-226.99 221.5,-216.99 214.5,-216.99"/>
</g>
<!-- AppRoutingModule -->
<g id="node3" class="node">
<title>AppRoutingModule</title>
<polygon fill="#8dd3c7" stroke="black" points="282.27,-122 279.27,-126 258.27,-126 255.27,-122 153.73,-122 153.73,-86 282.27,-86 282.27,-122"/>
<text text-anchor="middle" x="218" y="-99.8" font-family="Times,serif" font-size="14.00">AppRoutingModule</text>
</g>
<!-- AppRoutingModule&#45;&gt;AppModule -->
<g id="edge2" class="edge">
<title>AppRoutingModule&#45;&gt;AppModule</title>
<path fill="none" stroke="black" d="M218,-122.01C218,-122.01 218,-151.85 218,-151.85"/>
<polygon fill="black" stroke="black" points="214.5,-151.85 218,-161.85 221.5,-151.85 214.5,-151.85"/>
</g>
<!-- MaterialModule -->
<g id="node4" class="node">
<title>MaterialModule</title>
<polygon fill="#8dd3c7" stroke="black" points="407.47,-122 404.47,-126 383.47,-126 380.47,-122 300.53,-122 300.53,-86 407.47,-86 407.47,-122"/>
<text text-anchor="middle" x="354" y="-99.8" font-family="Times,serif" font-size="14.00">MaterialModule</text>
</g>
<!-- MaterialModule&#45;&gt;AppModule -->
<g id="edge3" class="edge">
<title>MaterialModule&#45;&gt;AppModule</title>
<path fill="none" stroke="black" d="M321.91,-122.01C321.91,-144.49 321.91,-180 321.91,-180 321.91,-180 269.66,-180 269.66,-180"/>
<polygon fill="black" stroke="black" points="269.67,-176.5 259.66,-180 269.66,-183.5 269.67,-176.5"/>
</g>
<!-- CategoryModule -->
<g id="node10" class="node">
<title>CategoryModule</title>
<polygon fill="#8dd3c7" stroke="black" points="1712.37,-263 1709.37,-267 1688.37,-267 1685.37,-263 1601.63,-263 1601.63,-227 1712.37,-227 1712.37,-263"/>
<text text-anchor="middle" x="1657" y="-240.8" font-family="Times,serif" font-size="14.00">CategoryModule</text>
</g>
<!-- MaterialModule&#45;&gt;CategoryModule -->
<g id="edge11" class="edge">
<title>MaterialModule&#45;&gt;CategoryModule</title>
<path fill="none" stroke="black" d="M364.7,-122.49C364.7,-153.59 364.7,-213 364.7,-213 364.7,-213 1638.52,-213 1638.52,-213 1638.52,-213 1638.52,-216.76 1638.52,-216.76"/>
<polygon fill="black" stroke="black" points="1635.02,-216.76 1638.52,-226.76 1642.02,-216.76 1635.02,-216.76"/>
</g>
<!-- LayoutModule -->
<g id="node12" class="node">
<title>LayoutModule</title>
<polygon fill="#8dd3c7" stroke="black" points="1380.71,-198 1377.71,-202 1356.71,-202 1353.71,-198 1281.29,-198 1281.29,-162 1380.71,-162 1380.71,-198"/>
<text text-anchor="middle" x="1331" y="-175.8" font-family="Times,serif" font-size="14.00">LayoutModule</text>
</g>
<!-- MaterialModule&#45;&gt;LayoutModule -->
<g id="edge23" class="edge">
<title>MaterialModule&#45;&gt;LayoutModule</title>
<path fill="none" stroke="black" d="M386.09,-122.24C386.09,-129.43 386.09,-136 386.09,-136 386.09,-136 1287.25,-136 1287.25,-136 1287.25,-136 1287.25,-151.85 1287.25,-151.85"/>
<polygon fill="black" stroke="black" points="1283.75,-151.85 1287.25,-161.85 1290.75,-151.85 1283.75,-151.85"/>
</g>
<!-- ContactModule -->
<g id="node15" class="node">
<title>ContactModule</title>
<polygon fill="#8dd3c7" stroke="black" points="1040.6,-263 1037.6,-267 1016.6,-267 1013.6,-263 937.4,-263 937.4,-227 1040.6,-227 1040.6,-263"/>
<text text-anchor="middle" x="989" y="-240.8" font-family="Times,serif" font-size="14.00">ContactModule</text>
</g>
<!-- MaterialModule&#45;&gt;ContactModule -->
<g id="edge16" class="edge">
<title>MaterialModule&#45;&gt;ContactModule</title>
<path fill="none" stroke="black" d="M343.3,-122.09C343.3,-161.99 343.3,-254 343.3,-254 343.3,-254 927.25,-254 927.25,-254"/>
<polygon fill="black" stroke="black" points="927.25,-257.5 937.25,-254 927.25,-250.5 927.25,-257.5"/>
</g>
<!-- AddCategoryComponent -->
<g id="node6" class="node">
<title>AddCategoryComponent</title>
<polygon fill="#ffffb3" stroke="black" points="2267.26,-198 2110.74,-198 2110.74,-162 2267.26,-162 2267.26,-198"/>
<text text-anchor="middle" x="2189" y="-175.8" font-family="Times,serif" font-size="14.00">AddCategoryComponent</text>
</g>
<!-- AddCategoryComponent&#45;&gt;CategoryModule -->
<g id="edge5" class="edge">
<title>AddCategoryComponent&#45;&gt;CategoryModule</title>
<path fill="none" stroke="black" d="M2189,-198.29C2189,-220.21 2189,-254 2189,-254 2189,-254 1722.43,-254 1722.43,-254"/>
<polygon fill="black" stroke="black" points="1722.43,-250.5 1712.43,-254 1722.43,-257.5 1722.43,-250.5"/>
</g>
<!-- CategoryFieldsComponent -->
<g id="node7" class="node">
<title>CategoryFieldsComponent</title>
<polygon fill="#ffffb3" stroke="black" points="2092.37,-198 1925.63,-198 1925.63,-162 2092.37,-162 2092.37,-198"/>
<text text-anchor="middle" x="2009" y="-175.8" font-family="Times,serif" font-size="14.00">CategoryFieldsComponent</text>
</g>
<!-- CategoryFieldsComponent&#45;&gt;CategoryModule -->
<g id="edge6" class="edge">
<title>CategoryFieldsComponent&#45;&gt;CategoryModule</title>
<path fill="none" stroke="black" d="M2009,-198.11C2009,-217.34 2009,-245 2009,-245 2009,-245 1722.39,-245 1722.39,-245"/>
<polygon fill="black" stroke="black" points="1722.39,-241.5 1712.39,-245 1722.39,-248.5 1722.39,-241.5"/>
</g>
<!-- CategoryListComponent -->
<g id="node8" class="node">
<title>CategoryListComponent</title>
<polygon fill="#ffffb3" stroke="black" points="1907.43,-198 1752.57,-198 1752.57,-162 1907.43,-162 1907.43,-198"/>
<text text-anchor="middle" x="1830" y="-175.8" font-family="Times,serif" font-size="14.00">CategoryListComponent</text>
</g>
<!-- CategoryListComponent&#45;&gt;CategoryModule -->
<g id="edge7" class="edge">
<title>CategoryListComponent&#45;&gt;CategoryModule</title>
<path fill="none" stroke="black" d="M1830,-198.03C1830,-214.4 1830,-236 1830,-236 1830,-236 1722.69,-236 1722.69,-236"/>
<polygon fill="black" stroke="black" points="1722.69,-232.5 1712.69,-236 1722.69,-239.5 1722.69,-232.5"/>
</g>
<!-- EditCategoryComponent -->
<g id="node9" class="node">
<title>EditCategoryComponent</title>
<polygon fill="#ffffb3" stroke="black" points="1734.98,-198 1579.02,-198 1579.02,-162 1734.98,-162 1734.98,-198"/>
<text text-anchor="middle" x="1657" y="-175.8" font-family="Times,serif" font-size="14.00">EditCategoryComponent</text>
</g>
<!-- EditCategoryComponent&#45;&gt;CategoryModule -->
<g id="edge8" class="edge">
<title>EditCategoryComponent&#45;&gt;CategoryModule</title>
<path fill="none" stroke="black" d="M1675.48,-198.11C1675.48,-198.11 1675.48,-216.99 1675.48,-216.99"/>
<polygon fill="black" stroke="black" points="1671.98,-216.99 1675.48,-226.99 1678.98,-216.99 1671.98,-216.99"/>
</g>
<!-- CategoryRoutingModule -->
<g id="node11" class="node">
<title>CategoryRoutingModule</title>
<polygon fill="#8dd3c7" stroke="black" points="1554.98,-198 1551.98,-202 1530.98,-202 1527.98,-198 1399.02,-198 1399.02,-162 1554.98,-162 1554.98,-198"/>
<text text-anchor="middle" x="1477" y="-175.8" font-family="Times,serif" font-size="14.00">CategoryRoutingModule</text>
</g>
<!-- CategoryRoutingModule&#45;&gt;CategoryModule -->
<g id="edge9" class="edge">
<title>CategoryRoutingModule&#45;&gt;CategoryModule</title>
<path fill="none" stroke="black" d="M1477,-198.11C1477,-217.34 1477,-245 1477,-245 1477,-245 1591.53,-245 1591.53,-245"/>
<polygon fill="black" stroke="black" points="1591.53,-248.5 1601.53,-245 1591.53,-241.5 1591.53,-248.5"/>
</g>
<!-- LayoutModule&#45;&gt;CategoryModule -->
<g id="edge10" class="edge">
<title>LayoutModule&#45;&gt;CategoryModule</title>
<path fill="none" stroke="black" d="M1347.53,-198.29C1347.53,-220.21 1347.53,-254 1347.53,-254 1347.53,-254 1591.32,-254 1591.32,-254"/>
<polygon fill="black" stroke="black" points="1591.32,-257.5 1601.32,-254 1591.32,-250.5 1591.32,-257.5"/>
</g>
<!-- LayoutModule&#45;&gt;ContactModule -->
<g id="edge15" class="edge">
<title>LayoutModule&#45;&gt;ContactModule</title>
<path fill="none" stroke="black" d="M1314.47,-198.03C1314.47,-214.4 1314.47,-236 1314.47,-236 1314.47,-236 1050.57,-236 1050.57,-236"/>
<polygon fill="black" stroke="black" points="1050.57,-232.5 1040.57,-236 1050.57,-239.5 1050.57,-232.5"/>
</g>
<!-- AddButtonComponent  -->
<g id="node23" class="node">
<title>AddButtonComponent </title>
<polygon fill="#fb8072" stroke="black" points="1316.56,-122 1169.44,-122 1169.44,-86 1316.56,-86 1316.56,-122"/>
<text text-anchor="middle" x="1243" y="-99.8" font-family="Times,serif" font-size="14.00">AddButtonComponent </text>
</g>
<!-- LayoutModule&#45;&gt;AddButtonComponent  -->
<g id="edge24" class="edge">
<title>LayoutModule&#45;&gt;AddButtonComponent </title>
<path fill="none" stroke="black" stroke-dasharray="5,2" d="M1310.67,-161.99C1310.67,-161.99 1310.67,-132.15 1310.67,-132.15"/>
<polygon fill="black" stroke="black" points="1314.17,-132.15 1310.67,-122.15 1307.17,-132.15 1314.17,-132.15"/>
</g>
<!-- ConfirmModalComponent  -->
<g id="node24" class="node">
<title>ConfirmModalComponent </title>
<polygon fill="#fb8072" stroke="black" points="1151.32,-122 982.68,-122 982.68,-86 1151.32,-86 1151.32,-122"/>
<text text-anchor="middle" x="1067" y="-99.8" font-family="Times,serif" font-size="14.00">ConfirmModalComponent </text>
</g>
<!-- LayoutModule&#45;&gt;ConfirmModalComponent  -->
<g id="edge25" class="edge">
<title>LayoutModule&#45;&gt;ConfirmModalComponent </title>
<path fill="none" stroke="black" stroke-dasharray="5,2" d="M1281.18,-180C1215.73,-180 1109.01,-180 1109.01,-180 1109.01,-180 1109.01,-132.01 1109.01,-132.01"/>
<polygon fill="black" stroke="black" points="1112.51,-132.01 1109.01,-122.01 1105.51,-132.01 1112.51,-132.01"/>
</g>
<!-- EditionLayoutComponent  -->
<g id="node25" class="node">
<title>EditionLayoutComponent </title>
<polygon fill="#fb8072" stroke="black" points="964.71,-122 799.29,-122 799.29,-86 964.71,-86 964.71,-122"/>
<text text-anchor="middle" x="882" y="-99.8" font-family="Times,serif" font-size="14.00">EditionLayoutComponent </text>
</g>
<!-- LayoutModule&#45;&gt;EditionLayoutComponent  -->
<g id="edge26" class="edge">
<title>LayoutModule&#45;&gt;EditionLayoutComponent </title>
<path fill="none" stroke="black" stroke-dasharray="5,2" d="M1304.82,-161.72C1304.82,-146.05 1304.82,-126 1304.82,-126 1304.82,-126 938.13,-126 938.13,-126 938.13,-126 938.13,-125.62 938.13,-125.62"/>
<polygon fill="black" stroke="black" points="941.63,-132.17 938.13,-122.17 934.63,-132.17 941.63,-132.17"/>
</g>
<!-- LayoutHeaderComponent  -->
<g id="node26" class="node">
<title>LayoutHeaderComponent </title>
<polygon fill="#fb8072" stroke="black" points="781.4,-122 616.6,-122 616.6,-86 781.4,-86 781.4,-122"/>
<text text-anchor="middle" x="699" y="-99.8" font-family="Times,serif" font-size="14.00">LayoutHeaderComponent </text>
</g>
<!-- LayoutModule&#45;&gt;LayoutHeaderComponent  -->
<g id="edge27" class="edge">
<title>LayoutModule&#45;&gt;LayoutHeaderComponent </title>
<path fill="none" stroke="black" stroke-dasharray="5,2" d="M1298.96,-161.88C1298.96,-147.22 1298.96,-129 1298.96,-129 1298.96,-129 764.06,-129 764.06,-129 764.06,-129 764.06,-128.32 764.06,-128.32"/>
<polygon fill="black" stroke="black" points="767.56,-132.17 764.06,-122.17 760.56,-132.17 767.56,-132.17"/>
</g>
<!-- ListingLayoutComponent  -->
<g id="node27" class="node">
<title>ListingLayoutComponent </title>
<polygon fill="#fb8072" stroke="black" points="1686.16,-122 1521.84,-122 1521.84,-86 1686.16,-86 1686.16,-122"/>
<text text-anchor="middle" x="1604" y="-99.8" font-family="Times,serif" font-size="14.00">ListingLayoutComponent </text>
</g>
<!-- LayoutModule&#45;&gt;ListingLayoutComponent  -->
<g id="edge28" class="edge">
<title>LayoutModule&#45;&gt;ListingLayoutComponent </title>
<path fill="none" stroke="black" stroke-dasharray="5,2" d="M1375.45,-161.9C1375.45,-150.91 1375.45,-139 1375.45,-139 1375.45,-139 1538.46,-139 1538.46,-139 1538.46,-139 1538.46,-132.32 1538.46,-132.32"/>
<polygon fill="black" stroke="black" points="1541.96,-132.32 1538.46,-122.32 1534.96,-132.32 1541.96,-132.32"/>
</g>
<!-- RemoveButtonComponent  -->
<g id="node28" class="node">
<title>RemoveButtonComponent </title>
<polygon fill="#fb8072" stroke="black" points="1503.61,-122 1334.39,-122 1334.39,-86 1503.61,-86 1503.61,-122"/>
<text text-anchor="middle" x="1419" y="-99.8" font-family="Times,serif" font-size="14.00">RemoveButtonComponent </text>
</g>
<!-- LayoutModule&#45;&gt;RemoveButtonComponent  -->
<g id="edge29" class="edge">
<title>LayoutModule&#45;&gt;RemoveButtonComponent </title>
<path fill="none" stroke="black" stroke-dasharray="5,2" d="M1339.35,-161.99C1339.35,-161.99 1339.35,-132.15 1339.35,-132.15"/>
<polygon fill="black" stroke="black" points="1342.85,-132.15 1339.35,-122.15 1335.85,-132.15 1342.85,-132.15"/>
</g>
<!-- ContactFormComponent -->
<g id="node13" class="node">
<title>ContactFormComponent</title>
<polygon fill="#ffffb3" stroke="black" points="1066.71,-198 911.29,-198 911.29,-162 1066.71,-162 1066.71,-198"/>
<text text-anchor="middle" x="989" y="-175.8" font-family="Times,serif" font-size="14.00">ContactFormComponent</text>
</g>
<!-- ContactFormComponent&#45;&gt;ContactModule -->
<g id="edge12" class="edge">
<title>ContactFormComponent&#45;&gt;ContactModule</title>
<path fill="none" stroke="black" d="M989,-198.11C989,-198.11 989,-216.99 989,-216.99"/>
<polygon fill="black" stroke="black" points="985.5,-216.99 989,-226.99 992.5,-216.99 985.5,-216.99"/>
</g>
<!-- ContactListComponent -->
<g id="node14" class="node">
<title>ContactListComponent</title>
<polygon fill="#ffffb3" stroke="black" points="893.16,-198 746.84,-198 746.84,-162 893.16,-162 893.16,-198"/>
<text text-anchor="middle" x="820" y="-175.8" font-family="Times,serif" font-size="14.00">ContactListComponent</text>
</g>
<!-- ContactListComponent&#45;&gt;ContactModule -->
<g id="edge13" class="edge">
<title>ContactListComponent&#45;&gt;ContactModule</title>
<path fill="none" stroke="black" d="M820,-198.03C820,-214.4 820,-236 820,-236 820,-236 927.38,-236 927.38,-236"/>
<polygon fill="black" stroke="black" points="927.38,-239.5 937.38,-236 927.38,-232.5 927.38,-239.5"/>
</g>
<!-- ContactRoutingModule -->
<g id="node16" class="node">
<title>ContactRoutingModule</title>
<polygon fill="#8dd3c7" stroke="black" points="723.21,-198 720.21,-202 699.21,-202 696.21,-198 574.79,-198 574.79,-162 723.21,-162 723.21,-198"/>
<text text-anchor="middle" x="649" y="-175.8" font-family="Times,serif" font-size="14.00">ContactRoutingModule</text>
</g>
<!-- ContactRoutingModule&#45;&gt;ContactModule -->
<g id="edge14" class="edge">
<title>ContactRoutingModule&#45;&gt;ContactModule</title>
<path fill="none" stroke="black" d="M649,-198.11C649,-217.34 649,-245 649,-245 649,-245 927.36,-245 927.36,-245"/>
<polygon fill="black" stroke="black" points="927.36,-248.5 937.36,-245 927.36,-241.5 927.36,-248.5"/>
</g>
<!-- AddButtonComponent -->
<g id="node17" class="node">
<title>AddButtonComponent</title>
<polygon fill="#ffffb3" stroke="black" points="2396.56,-122 2253.44,-122 2253.44,-86 2396.56,-86 2396.56,-122"/>
<text text-anchor="middle" x="2325" y="-99.8" font-family="Times,serif" font-size="14.00">AddButtonComponent</text>
</g>
<!-- AddButtonComponent&#45;&gt;LayoutModule -->
<g id="edge17" class="edge">
<title>AddButtonComponent&#45;&gt;LayoutModule</title>
<path fill="none" stroke="black" d="M2260.3,-122.15C2260.3,-135.74 2260.3,-152 2260.3,-152 2260.3,-152 1359.98,-152 1359.98,-152 1359.98,-152 1359.98,-152.98 1359.98,-152.98"/>
<polygon fill="black" stroke="black" points="1356.48,-151.79 1359.98,-161.79 1363.48,-151.79 1356.48,-151.79"/>
</g>
<!-- ConfirmModalComponent -->
<g id="node18" class="node">
<title>ConfirmModalComponent</title>
<polygon fill="#ffffb3" stroke="black" points="2235.82,-122 2070.18,-122 2070.18,-86 2235.82,-86 2235.82,-122"/>
<text text-anchor="middle" x="2153" y="-99.8" font-family="Times,serif" font-size="14.00">ConfirmModalComponent</text>
</g>
<!-- ConfirmModalComponent&#45;&gt;LayoutModule -->
<g id="edge18" class="edge">
<title>ConfirmModalComponent&#45;&gt;LayoutModule</title>
<path fill="none" stroke="black" d="M2081.39,-122.04C2081.39,-134.56 2081.39,-149 2081.39,-149 2081.39,-149 1354.82,-149 1354.82,-149 1354.82,-149 1354.82,-151.97 1354.82,-151.97"/>
<polygon fill="black" stroke="black" points="1351.32,-151.97 1354.82,-161.97 1358.32,-151.97 1351.32,-151.97"/>
</g>
<!-- EditionLayoutComponent -->
<g id="node19" class="node">
<title>EditionLayoutComponent</title>
<polygon fill="#ffffb3" stroke="black" points="2052.21,-122 1889.79,-122 1889.79,-86 2052.21,-86 2052.21,-122"/>
<text text-anchor="middle" x="1971" y="-99.8" font-family="Times,serif" font-size="14.00">EditionLayoutComponent</text>
</g>
<!-- EditionLayoutComponent&#45;&gt;LayoutModule -->
<g id="edge19" class="edge">
<title>EditionLayoutComponent&#45;&gt;LayoutModule</title>
<path fill="none" stroke="black" d="M1898.55,-122.06C1898.55,-133.44 1898.55,-146 1898.55,-146 1898.55,-146 1349.67,-146 1349.67,-146 1349.67,-146 1349.67,-151.81 1349.67,-151.81"/>
<polygon fill="black" stroke="black" points="1346.17,-151.81 1349.67,-161.81 1353.17,-151.81 1346.17,-151.81"/>
</g>
<!-- LayoutHeaderComponent -->
<g id="node20" class="node">
<title>LayoutHeaderComponent</title>
<polygon fill="#ffffb3" stroke="black" points="1871.9,-122 1710.1,-122 1710.1,-86 1871.9,-86 1871.9,-122"/>
<text text-anchor="middle" x="1791" y="-99.8" font-family="Times,serif" font-size="14.00">LayoutHeaderComponent</text>
</g>
<!-- LayoutHeaderComponent&#45;&gt;LayoutModule -->
<g id="edge20" class="edge">
<title>LayoutHeaderComponent&#45;&gt;LayoutModule</title>
<path fill="none" stroke="black" d="M1722.65,-122.11C1722.65,-131.9 1722.65,-142 1722.65,-142 1722.65,-142 1344.51,-142 1344.51,-142 1344.51,-142 1344.51,-151.89 1344.51,-151.89"/>
<polygon fill="black" stroke="black" points="1341.01,-151.89 1344.51,-161.89 1348.01,-151.89 1341.01,-151.89"/>
</g>
<!-- ListingLayoutComponent -->
<g id="node21" class="node">
<title>ListingLayoutComponent</title>
<polygon fill="#ffffb3" stroke="black" points="2759.16,-122 2598.84,-122 2598.84,-86 2759.16,-86 2759.16,-122"/>
<text text-anchor="middle" x="2679" y="-99.8" font-family="Times,serif" font-size="14.00">ListingLayoutComponent</text>
</g>
<!-- ListingLayoutComponent&#45;&gt;LayoutModule -->
<g id="edge21" class="edge">
<title>ListingLayoutComponent&#45;&gt;LayoutModule</title>
<path fill="none" stroke="black" d="M2679,-122.01C2679,-138.05 2679,-159 2679,-159 2679,-159 1370.29,-159 1370.29,-159 1370.29,-159 1370.29,-159.29 1370.29,-159.29"/>
<polygon fill="black" stroke="black" points="1366.79,-151.92 1370.29,-161.92 1373.79,-151.92 1366.79,-151.92"/>
</g>
<!-- RemoveButtonComponent -->
<g id="node22" class="node">
<title>RemoveButtonComponent</title>
<polygon fill="#ffffb3" stroke="black" points="2581.11,-122 2414.89,-122 2414.89,-86 2581.11,-86 2581.11,-122"/>
<text text-anchor="middle" x="2498" y="-99.8" font-family="Times,serif" font-size="14.00">RemoveButtonComponent</text>
</g>
<!-- RemoveButtonComponent&#45;&gt;LayoutModule -->
<g id="edge22" class="edge">
<title>RemoveButtonComponent&#45;&gt;LayoutModule</title>
<path fill="none" stroke="black" d="M2498,-122.19C2498,-137.18 2498,-156 2498,-156 2498,-156 1365.13,-156 1365.13,-156 1365.13,-156 1365.13,-156.58 1365.13,-156.58"/>
<polygon fill="black" stroke="black" points="1361.63,-151.81 1365.13,-161.81 1368.63,-151.81 1361.63,-151.81"/>
</g>
<!-- ConfirmService -->
<g id="node29" class="node">
<title>ConfirmService</title>
<ellipse fill="#fdb462" stroke="black" cx="520" cy="-104" rx="72.93" ry="18"/>
<text text-anchor="middle" x="520" y="-99.8" font-family="Times,serif" font-size="14.00">ConfirmService</text>
</g>
<!-- ConfirmService&#45;&gt;LayoutModule -->
<g id="edge30" class="edge">
<title>ConfirmService&#45;&gt;LayoutModule</title>
<path fill="none" stroke="black" d="M583.8,-112.86C583.8,-121.06 583.8,-132 583.8,-132 583.8,-132 1293.11,-132 1293.11,-132 1293.11,-132 1293.11,-151.85 1293.11,-151.85"/>
<polygon fill="black" stroke="black" points="1289.61,-151.85 1293.11,-161.85 1296.61,-151.85 1289.61,-151.85"/>
</g>
</g>
</svg>
